<svg version="1.2" xmlns="http://www.w3.org/2000/svg" viewBox="0 0 1137 1390" width="1137" height="1390"><style>.a{fill:#9801ff}</style><path class="a" d="m452.2 589.2q-1.5 3.2-3.5 8.7-2 5.5-11.6 34.8-9.5 29.4-12.7 25.6-3.2-3.8-4.9-3.8-1.7 0-2.7 1.2-1.1 1.1-3.3 0-2.2-1.2-3.7-1.2-1.4 0-7.7 7.9-6.3 7.8-10.8 14.5-4.5 6.7-5.2 6.7-0.8 0-2-0.9-1.2-0.9-1.2-1.8 0-0.8 3.3-6.9 3.3-6.1 4.7-9.3 1.5-3.2 1.6-4.7 0.1-1.4 0-2.6-0.1-1.1-1.7-4-1.6-2.9-3.6-4.4-1.9-1.4-3.9-1.4-2 0-9.1 6.9-7.1 7-13.5 15.1-6.4 8.2-12.3 16.9-5.9 8.7-11.2 17.7-5.2 9-13.1 25.5-7.9 16.6-12.2 27.9-4.4 11.3-4.5 13.4-0.1 2 1.1 4.9 1.1 2.9 3 4.6 1.8 1.8 3.9 2.1 2.1 0.3 3-0.9 1-1.2 3.6-9 2.6-7.8 8.9-22.1 6.3-14.2 13.1-26.7 6.9-12.5 8.4-14.8 0.8-1.2 1.6-2.3 0.1 0.3 0.2 0.6 0.1 0.6-5 13-5.2 12.5-9.4 24.1-4.2 11.7-9.9 29.4-5.8 17.7-8.7 27.8-2.9 10.2-3.4 12.8-0.5 2.6-0.4 4.4 0.1 1.7 1.3 4 1.2 2.4 3.5 4.4 2.4 2 4.2 2 1.9 0 3.1-1.7 1.1-1.8 6.7-15.7 5.5-13.9 11.6-27.6 6.2-13.6 6.7-14.5 0.6-0.9 1.9-1.2 1.3-0.3 3.4-4.6 1-2.2 2.1-4.4-0.3 1.5-0.5 2.9-0.6 2.9-0.6 5 0 2 0.4 3.2 0.4 1.1 0.3 2.6-0.1 1.4-5.6 17.4-5.6 16-7.4 22.6-1.8 6.7-1.6 9.3 0.3 2.7 1.3 4.7 1.1 2 3.1 3.8 1.9 1.7 4 1.7 2.1 0 3.6-2.6 1.4-2.6 3-7 1.6-4.3 8.7-20 7.1-15.7 13.8-29.1 6.6-13.3 9.3-17.7 1.3-2.1 2.6-4.3-1.7 5.8-3.4 11.6-3.4 11.6-9.9 28.5-6.4 16.8-9.2 25.5-2.7 8.7-2.8 10.2-0.2 1.4 0.5 4.6 0.6 3.2 1.7 5.5 1 2.4 3 4.7 2 2.3 3.3 2.3 1.3 0 1.7-0.6 0.4-0.6 6.3-16.8 5.9-16.3 7-20.1 1-3.7 4.6-9.2 1.7-2.8 3.5-5.6 0.2 0.9 0.4 1.8 0.4 1.7 1.7 4.3 1.3 2.6 3 4.4 1.7 1.7 3.7 2 2 0.3 2.6-0.6 0.7-0.8 3.2-8.1 2.5-7.3 3.4-9.3 0.9-2 1.3-2 0.4 0 2.2 2 1 1 1.9 2.1-0.4 1.4-0.7 2.9-0.6 2.9-0.6 4.6 0 1.7 0.9 4.4 0.9 2.6 3 5.2 2.1 2.6 4.3 3.2 2.3 0.6 5-5 2.8-5.5 7.6-17.7 4.9-12.2 5.8-11.3 0.9 0.9 0.8 2-0.1 1.2-5.6 19.8-5.6 18.6-5.3 21.2 0.3 2.6 1.2 4.6 0.9 2.1 3.8 4.7 2.9 2.6 4.6 2 1.7-0.6 6.8-13.4 2.6-6.3 5.1-12.7 0.1 0.4 0.2 0.8 0.1 0.9-0.3 2.9-0.4 2.1 1.2 5.6 1.6 3.4 4.1 4.9 2.5 1.4 4.7 4.4 2.2 2.9 4.1 3.4 1.8 0.6 2.7 0 0.9-0.5 7.2-14.5 3.2-6.9 6.3-13.9-0.9 3.2-1.8 6.4-1.8 6.4-2 8.7-0.1 2.3 0.4 4 0.6 1.8 1.7 3.5 1.2 1.8 4.2 3.5 3.1 1.8 4.5 0.6 1.4-1.2 6.8-11.6 2.7-5.2 5.4-10.5 0.5 1.8 0.9 3.5 1 3.5 2.1 6.1 1.2 2.6 2.8 4.4 1.6 1.7 2.8 1.1 1.1-0.6 5.5-9.8 4.3-9.3 6-8.2 1.7 1.2 2.6 4.4 1 3.2 2.7 6.7 1.7 3.4 3.5 4.3 1.8 0.9 6.6-7.2 4.7-8.2 5.1-7.9 0.4 0.3 0.4 1.5 0 1.1 1.3 3.7 1.3 2.7 2.8 4.1 1.4 1.5 3.4 2 1.9 0.6 3.8-1.1 1.8-1.8 4.8-7.3 3.1-5.5 5.2-2.6 2.1 2.9 3.1 2.9 1.1 0 4.5-6.1 3.4-6.1 3.9-6.1 0.5 0 2.6 1.5 1.1 0.7 2.1 1.4-2.1 4.8-4.3 9.6-4.3 9.6-4.5 11.9-0.1 2.3 0.4 4.9 0.6 2.7 1.9 6.1 1.3 3.5 3.4 5.8 2.1 2.4 2.6 2.1 0.5-0.3 10-21.2 9.4-20.9 10-20.1 0.2 0.5 0.5 0.9-4.2 9.4-8.4 18.9-8.4 18.9-8.3 20.9 0.2 2 1.3 4.4 1.2 2.3 2.8 3.7 1.6 1.5 3.7 2.1 2.1 0.5 3.1-0.6 1.1-1.2 9.5-19.8 8.4-18.5 8.9-18.8 0.5-0.3 1.1 2 0.5 2.3 2.3 4.6 1.9 2.4 3.6 3.2 1.7 0.9 3.2 0.6 1.6-0.3 13.8-18.9 6.1-9.2 12.2-18.5 0.1 0.2 0.2 0.5 0.1 0.6-5.7 12.5-5.7 11.9-5.9 14.5-0.1 2.7 0.5 4.4 0.7 1.7 2.7 4.1 1.9 2.3 4.8 2.9 2.9 0.5 12.4-11.4 4.7-5.9 9.4-11.9-3.3 6.4-6.7 12.8-6.7 12.8-6.5 14.5 0.1 1.8 1.5 4.4 1.5 2.6 3.2 4.1 1.7 1.4 3.1 1.7 1.5 0.3 2.8-0.6 1.3-0.9 14.2-21.8 12.9-20.9 22-34.2 9.2-13.4 12.5-17.4 1.7-2.1 3.3-4.1-4.3 9-8.7 18-8.6 18-19 37.4-10.4 19.5-10.1 22.4 0.2 2.9 1.3 4.7 1 1.7 3 3.4 2 1.8 4.1 1.8 2.1 0 5.4-5 3.3-4.9 4-2.9 0.8 2.1 2.3 3.8 1.4 1.7 4.3 2.6 2.9 0.9 9.1-7.8 6.1-8.7 15.5-23.2 9.3-14.6 19.9-34.3 10.7-19.8 16.3-32.2 5.7-12.5 5.4-15.7-0.3-3.2-1.2-5-0.9-1.7-2.8-3.4-1.8-1.8-4.2-2.1-2.3-0.3-4 1.2-1.7 1.4-8.4 10.1-3.4 4.4-6.7 8.8 1.9-4.4 3.9-8.8 4-8.7 6.3-15 2.4-6.4 2.2-8.5-0.1-2-1.1-4.3-1.1-2.3-2.4-3.8-1.3-1.4-3.7-2.3-2.3-0.9-5 1.1-2.6 2.1-10.3 11.9-7.8 9.9-8.8 7-1.1-2.9-2.1-4.3-1.1-1.5-2.7-2.7-1.5-1.1-3.4-1.1-1.8 0-6 4.9-4.2 5-13 17.1-8.8 12.2-9.5 12.5-0.3 0.2-0.6 0.3 2.4-5.5 4.8-11 4.9-11 4.9-13.9 0-2.9-1.3-5.6-1.3-2.6-3.4-4.3-2.1-1.8-4.4-1.8-2.2 0-5.2 3.2-3 3.2-6.6 8.2-3.5 4.9-4.1 4.9-0.2 0-0.5 0 1.7-3.3 3.4-6.7 3.4-6.7 5.2-11.3 1.7-4.6 1.4-6.7-0.3-2-0.9-3.5-0.7-1.4-2.1-3.2-1.5-1.7-2.9-2.3-1.5-0.6-1.5-1.1 0-0.6 6.9-12.5 6.8-11.9 10-16.3 3.1-4.3 3.6-6.4 0.6-2-0.4-4.6-0.9-2.6-3.9-5.2-3-2.7-5-2.1-2 0.6-15.4 19.8-13.4 19.1-21.5 31.9-4.1 6.4-8.1 12.8 4.2-9.9 8.5-19.8 8.5-19.7 8.7-23.2 0.1-3.5-0.4-5.8-0.6-2.3-2-5.8-1.4-3.5-2.8-5.2-1.3-1.8-2.4-1.8-1.2 0-7.3 8.2-6 8.1-11.5 16.5-2.8 4.2-5.5 8.4 2.6-6.7 5.2-13.3 5.3-13.4 5.1-16-0.1-2.6-1.1-6.4-1.1-3.8-2.8-7-1.7-3.2-3.4-3.7-1.7-0.6-10.7 12.5-8.9 13-19.5 30.4-10.7 17.5-10.9 17.2-0.2-0.2-0.3-0.3 1.5-3.2 3-6.4 3.1-6.4 8.7-16.8 5.7-10.5 5.8-12 0.1-1.4-0.4-4.6-0.5-3.2-2.4-7.5-1.8-4.4-3.7-5.9-1.8-1.4-7.7 7.6-5.9 9-6.3 9-0.4 0-0.9-2.6-0.5-2.6-1.9-5.5-1.3-2.9-2.7-4.7-1.5-1.7-2.4-1.7-0.9 0-6.3 9-5.4 9-13.2 24.1-7.9 15.1-13.2 26.1-5.2 11.1-10.4 23.2-5.1 12.2-10.3 20.4-2.7 4-5.3 8.1 1.9-5.1 3.7-10.2 3.7-10.1 13.7-33.9 9.9-23.8 15.8-36.3 6-12.5 11.1-21.8 5.1-9.3 5.1-11.3 0-2.1-0.8-4.1-0.8-2-3.4-4.6-2.6-2.7-4.6-2.7-2 0-4.7 3.2-2.8 3.2-4.6 2.4-1.9-0.9-3.3-0.6-1.5 0.3-7.2 13-5.8 12.8-12 22.1-3.1 4.7-6.2 9.3 4.6-14.8 9.2-29.6 9.2-29.6 8.8-32.2-0.4-2.7-1.5-5-1.2-2.3-3.3-4.3-2.1-2.1-4-2.1-1.8 0-4.7 5.6-2.9 5.5-21.3 46.4-9.2 20.5-18.3 40.9 4.2-13.3 8.4-26.7 8.4-26.7 8.5-28.7 0.1-2-0.1-3.5-0.3-1.4-2.8-5.2-2.5-3.8-5.1-4.4-2.6-0.6-10.5 16.3-4 8.4-7.9 16.8 1.4-4.5 2.9-9 2.9-9 2.5-11.9-0.4-2.9-1.5-4.9-1-2.1-3.1-4.1-2.1-2-3.4-2.3-1.3-0.3-2.5 1.2-1.2 1.4-2.1-0.9-0.9-2.3-3.3-5-2.4-2.6-3.9-2.9-1.6-0.2-2.4 0.3-0.8 0.6-1.8 3.2-1.1 2.6-1.6 2.6-0.5 0-1.7-2.3-1.2-2.3-2.4-3.2-0.6-0.4-1.2-0.8 0.7-2.1 1.3-4.1 1.4-4.1 2.3-5.5 0.9-1.5 0.5-5-0.4-3.4-2.6-7.8-2.3-4.4-3.2-5.2-0.9-0.9-2.3-0.9-1.5 0-3.1 3.2z"/><path class="a" d="m307.8 517.5q-1.6 1.5-4 4.1-2.3 2.7-14.1 17.1-11.9 14.3-13.1 11.5-1.2-2.8-2.2-3.2-1.1-0.4-2 0.1-0.8 0.4-2-0.8-1.1-1.1-2-1.4-0.9-0.4-6.4 2.7-5.5 3-9.6 5.7-4.1 2.8-4.6 2.6-0.5-0.1-1-0.9-0.6-0.8-0.4-1.2 0.2-0.5 3.4-3.2 3.3-2.7 4.8-4.2 1.6-1.5 2-2.3 0.3-0.8 0.5-1.5 0.1-0.6-0.2-2.6-0.4-2-1.4-3.3-0.9-1.2-2.1-1.6-1.2-0.5-7 1.9-5.8 2.3-11.4 5.5-5.6 3.1-11 6.7-5.4 3.6-10.5 7.5-5.1 3.9-13.3 11.5-8.2 7.5-13.2 12.9-4.9 5.4-5.4 6.6-0.5 1.1-0.4 3 0.2 1.9 0.9 3.3 0.8 1.3 2.1 2 1.2 0.6 2 0.2 0.8-0.5 4-4.3 3.2-3.9 10-10.5 6.8-6.6 13.5-12.1 6.8-5.5 8.2-6.5 0.7-0.4 1.4-0.9 0 0.2 0 0.3 0 0.4-5.7 6.3-5.7 5.9-10.7 11.5-4.9 5.6-12 14.3-7.2 8.7-11 13.7-3.9 5.1-4.7 6.5-0.9 1.3-1.2 2.3-0.2 1 0 2.6 0.3 1.6 1.3 3.2 1.1 1.7 2.2 2.1 1.2 0.4 2.2-0.3 1.1-0.7 7.4-7.3 6.2-6.6 12.7-13 6.6-6.3 7.1-6.6 0.5-0.4 1.4-0.3 0.9 0.1 3-1.8 1.1-1 2.2-2-0.4 0.7-0.9 1.5-0.9 1.5-1.3 2.7-0.4 1.1-0.4 1.8 0 0.8-0.4 1.6-0.4 0.8-7 8.5-6.6 7.8-9.1 11.1-2.5 3.4-2.9 4.9-0.3 1.5-0.1 2.9 0.2 1.4 1.1 2.8 0.9 1.4 2.2 1.9 1.3 0.5 2.7-0.7 1.4-1.1 3.3-3.2 1.8-2.1 9.4-9.4 7.5-7.2 14.4-13.3 6.8-6 9.3-7.9 1.2-0.9 2.5-1.8-2.2 2.9-4.5 5.7-4.4 5.8-11.8 13.9-7.4 8-10.8 12.3-3.5 4.3-3.9 5.1-0.4 0.8-0.6 2.7-0.2 2-0.1 3.5 0.2 1.5 1 3.3 0.7 1.7 1.5 2 0.8 0.3 1.2 0.1 0.4-0.3 7.3-8.1 6.9-7.8 8.3-9.7 1.5-1.9 4.8-4.2 1.6-1.2 3.3-2.4-0.1 0.6-0.1 1.1-0.2 1.1 0.1 2.8 0.3 1.8 1 3.2 0.7 1.3 1.9 1.9 1.1 0.6 1.7 0.3 0.6-0.4 3.6-3.9 3-3.5 4-4.5 1-0.9 1.2-0.8 0.3 0.1 1 1.6 0.3 0.8 0.7 1.6-0.5 0.7-1 1.5-1 1.4-1.3 2.4-0.4 1-0.3 2.7 0 1.7 0.8 3.6 0.7 1.9 2 2.8 1.3 0.8 4.1-1.7 2.8-2.5 8.3-8.3 5.4-5.8 5.8-5.1 0.4 0.7 0.1 1.3-0.3 0.7-7.5 9.9-7.2 9.2-7.5 10.8-0.4 1.5-0.2 2.8 0.1 1.4 1.4 3.5 1.2 2.1 2.4 2.2 1.2 0 6.9-6 2.9-3.1 5.8-6.1-0.1 0.3-0.1 0.5-0.1 0.5-0.8 1.6-0.6 1.1-0.4 3.4 0.3 2.3 1.6 3.6 1.2 1.4 2 3.5 0.8 2.2 1.8 2.9 1 0.7 1.7 0.6 0.7-0.1 7.4-6.6 3.4-3.2 6.7-6.4-1.2 1.6-2.4 3.2-2.4 3.2-3 4.5-0.5 1.2-0.6 2.3 0 1.1 0.4 2.4 0.4 1.2 1.9 2.9 1.5 1.6 2.6 1.3 1.1-0.3 6.6-5 2.7-2.4 5.4-4.7 0 1.1-0.1 2.1-0.2 2.2 0.1 3.9 0.2 1.8 0.8 3.1 0.6 1.3 1.4 1.3 0.9-0.1 5.4-4.4 4.6-4.2 5.4-3.2 0.8 1 0.8 3-0.1 2 0.2 4.4 0.4 2.3 1.3 3.2 1 0.9 5.6-2.6 4.5-3.5 4.7-3.3 0.2 0.3 0 0.9-0.3 0.7 0 2.4 0.3 1.8 0.9 2.9 0.6 1.2 1.7 1.9 1.1 0.8 2.6 0.2 1.5-0.5 4.4-3 3-2.4 3.7-0.3 0.7 2.1 1.4 2.3 0.6 0.2 4-2.4 3.3-2.7 3.6-2.6 0.4 0.1 1.4 1.4 0.5 0.7 1 1.3-2.3 2.2-4.6 4.4-4.6 4.5-5.2 5.7-0.5 1.3-0.8 2.9-0.2 1.6-0.1 3.9 0.2 2.2 1 4 0.8 1.7 1.2 1.7 0.4 0 10.4-9.7 10.1-9.7 10.3-9.1 0 0.3 0.1 0.6-4.5 4.4-9 8.8-9 8.7-9.3 9.9-0.4 1.2-0.1 2.8 0.3 1.5 0.9 2.7 0.7 1.2 1.9 2 1.2 0.8 2.1 0.3 0.8-0.4 9.8-9 8.9-8.6 9.3-8.6 0.4-0.1 0.3 1.4-0.2 1.4 0.5 3.1 0.6 1.7 1.5 2.6 0.9 0.8 1.9 1 1.1 0.2 12.4-7.5 5.6-3.9 11.3-7.8 0 0.2-0.1 0.4 0 0.3-6 5.8-6 5.4-6.6 6.8-0.6 1.5-0.5 2.6 0 1.1 0.8 2.9 0.7 1.7 2.4 2.7 1.7 0.9 9.9-3.7 4.1-2.3 8.2-4.6-3.3 2.9-6.7 5.7-6.7 5.7-7 6.7-0.2 1.1 0.1 2.8 0.4 1.8 1.2 3 0.7 1.2 1.5 1.7 0.9 0.5 1.9 0.3 1-0.2 13.1-9.1 12.2-8.9 20.6-14.4 8.4-5.5 11.2-7 1.4-0.8 2.9-1.6-4.5 4.1-9 8.2-9 8.2-19.4 16.9-10.3 8.6-10.7 10.3-0.5 1.7-0.2 2.9 0.3 1.2 1.2 2.6 0.9 1.5 2.2 1.9 1.3 0.5 4.3-1.6 3-2 3.1-0.7 0.1 1.3 0.6 2.6 0.5 1.3 2.2 2.5 1.6 1.1 7.1-2.4 5.6-3.6 14.3-9.7 8.7-6.1 19.3-14.8 10.5-8.8 16.5-14.5 6-5.8 6.5-7.7 0.5-1.8 0.3-3-0.2-1.2-1-2.6-0.8-1.4-2.2-2.1-1.4-0.6-2.7-0.2-1.4 0.4-7.3 3.8-2.9 1.8-5.9 3.5 2.1-2 4.2-4.1 4.2-4 7-7.1 2.7-3 3-4.2 0.4-1.2 0.2-2.7-0.2-1.6-0.7-2.7-0.5-1.1-1.8-2.1-1.3-1-3.3-0.4-2.1 0.5-8.8 4.4-6.8 3.8-6.9 1.9 0-1.8-0.4-2.9-0.3-1-1.1-2.1-0.7-1-1.9-1.4-1.1-0.4-4.7 1.5-3.6 1.8-11.5 6.7-7.9 4.9-8.3 5-0.3 0-0.5 0 2.6-2.6 5.2-5.2 5.3-5.1 5.8-6.7 0.6-1.7 0.3-3.4-0.2-1.8-1.2-3.2-0.9-1.5-2.3-2-1.4-0.5-3.9 0.7-2.5 1.1-5.7 3.1-3.2 2-3.5 1.9-0.2-0.1-0.3-0.2 1.7-1.5 3.4-3 3.5-3 5.5-5.2 2-2.2 2.2-3.4 0.3-1.2 0.2-2.2-0.2-1-0.7-2.3-0.5-1.3-1.3-1.9-0.8-0.7-0.7-1 0.2-0.3 6.8-5.5 6.6-5.2 9.4-6.9 2.9-1.8 3.6-2.8 0.7-1 0.7-2.7 0-1.7-1.4-3.8-1.3-2.2-2.7-2.3-1.3-0.1-13.4 7.7-12.2 7.8-19.8 13.2-3.8 2.7-7.6 5.4 4.6-4.6 9.3-9.2 9.2-9.2 10-11.2 0.8-1.9 0.9-3.3 0.2-1.4 0-3.7-0.2-2.3-0.7-3.6-0.4-1.3-1.1-1.5-0.8-0.3-6.1 3-5.4 3.2-10.5 6.7-2.6 1.8-5.1 3.5 2.9-3.2 5.9-6.3 6-6.4 6.4-7.9 0.4-1.5 0.6-3.8 0.1-2.4-0.3-4.6-0.4-2.1-1.4-2.9-0.9-0.7-9.1 4.7-8.1 5.4-18.2 12.8-10.1 7.5-10.2 7.2-0.1-0.1-0.1-0.2 1.6-1.4 3.1-2.9 3.2-2.9 8.8-7.6 5.6-4.6 6-5.4 0.3-0.8 0.7-2.7 0.3-1.9 0-4.7-0.2-2.9-1.1-4.1-0.8-1.3-6.3 2.5-5.4 3.8-5.7 3.7-0.2-0.1 0-1.7 0.2-1.6 0-3.5-0.3-1.9-0.8-3.2-0.5-1.3-1.1-1.6-0.6-0.2-5.7 3.7-5.2 3.9-13.1 10.6-7.9 6.8-13.4 11.8-5.5 5.1-11.1 10.8-5.6 5.7-10.5 9.1-2.5 1.7-4.9 3.4 2.2-2.4 4.3-4.9 4.4-4.9 15.3-16.1 11-11.1 17.2-16.8 6.2-5.8 11.2-9.9 5-4 5.5-5.2 0.4-1.1 0.3-2.5-0.1-1.3-1.2-3.3-1.1-2.1-2.3-2.5-1.2-0.5-3.6 0.7-2.3 1.2-3.3 0.3-0.9-0.9-1.9-1-0.9-0.2-7.1 5.7-6.1 5.9-11.8 9.8-2.9 1.9-5.7 3.8 5.8-7.3 11.7-14.6 11.6-14.6 11.9-16.2 0.3-1.5 0-3.1-0.2-1.6-1.1-3.2-0.9-1.6-2-2-1.2-0.4-4.1 2.1-2.9 2.4-22.5 21.4-9.8 9.5-19.6 18.9 5.3-6.5 10.6-13.1 10.5-13.2 11-14.3 0.5-1.1 0.7-2 0.1-0.9-0.7-3.6-0.8-2.6-2.3-3.5-1.5-1-9.7 6.8-4.2 3.8-8.3 7.7 1.8-2.2 3.6-4.4 3.6-4.4 3.9-6.2 0.4-1.7 0.1-3.1-0.2-1.3-1.1-3-0.9-1.6-1.6-2-0.8-0.5-1.8 0.1-1 0.5-1.1-1-0.1-1.5-1-3.5-1-2-1.9-2.5-0.9-0.5-1.5-0.3-0.6 0.1-1.8 1.3-1.2 1.3-1.5 1.2-0.3-0.2-0.6-1.7-0.2-1.6-0.8-2.3-0.3-0.4-0.5-0.8 0.8-1 1.6-2 1.6-2 2.5-2.6 0.8-0.6 1.3-2.7 0.5-2 0-5-0.5-2.9-0.9-3.6-0.4-0.7-1.3-1-0.9-0.3-2.5 1.1z"/><path class="a" d="m692.3 546.2q-0.1 2.1 0.2 5.7 0.3 3.5 2.5 22 2.3 18.5-0.6 17.4-2.9-1.1-3.9-0.6-1 0.5-1.3 1.4-0.3 1-1.9 1-1.6 0-2.5 0.5-0.8 0.4-2.4 6.4-1.6 6.1-2.5 10.9-0.8 4.9-1.3 5.2-0.4 0.2-1.3 0.1-1-0.1-1.2-0.6-0.2-0.5 0.1-4.7 0.3-4.2 0.3-6.4-0.1-2.1-0.4-2.9-0.3-0.8-0.7-1.4-0.4-0.6-2.1-1.7-1.7-1.1-3.2-1.3-1.5-0.2-2.7 0.4-1.2 0.6-3.5 6.4-2.3 5.8-3.9 12-1.6 6.3-2.7 12.7-1.1 6.4-1.8 12.7-0.7 6.4-0.9 17.5-0.2 11.2 0.3 18.5 0.5 7.4 0.9 8.5 0.5 1.1 2 2.3 1.4 1.2 3 1.6 1.5 0.4 2.8 0 1.4-0.5 1.6-1.4 0.2-0.9-0.3-5.9-0.6-4.9-0.7-14.4-0.1-9.4 0.6-18.1 0.6-8.7 0.9-10.4 0.2-0.9 0.3-1.7 0.2 0.1 0.3 0.3 0.2 0.2 0.5 8.4 0.4 8.2 1 15.6 0.7 7.5 2 18.7 1.3 11.1 2.4 17.4 1 6.3 1.4 7.8 0.4 1.6 0.9 2.5 0.6 0.9 1.9 1.8 1.3 0.9 3.2 1.3 1.9 0.4 3-0.2 1.1-0.5 1.3-1.8 0.3-1.3-0.2-10.3-0.5-9.1-0.5-18.2-0.1-9.1 0-9.8 0.1-0.6 0.8-1.1 0.7-0.6 0.7-3.5 0.1-1.5 0.1-3 0.2 0.9 0.5 1.8 0.4 1.7 1 2.7 0.5 1.1 1.1 1.6 0.5 0.5 0.8 1.4 0.3 0.8 1.4 10.9 1 10.2 1.7 14.3 0.7 4.1 1.6 5.4 0.8 1.4 2 2.1 1.1 0.8 2.8 1.2 1.6 0.3 2.8-0.3 1.2-0.6 1.4-2.4 0.1-1.8-0.1-4.6-0.2-2.8-0.3-13.3 0-10.5 0.4-19.6 0.3-9.1 0.7-12.2 0.2-1.5 0.4-3.1 0.5 3.6 1.1 7.2 1.1 7.2 1.8 18.1 0.7 10.9 1.4 16.4 0.8 5.5 1.1 6.3 0.3 0.8 1.5 2.3 1.3 1.5 2.5 2.5 1.2 0.9 3 1.6 1.8 0.6 2.6 0.2 0.7-0.3 0.8-0.8 0.1-0.4-0.8-10.8-0.9-10.5-1.3-12.8-0.4-2.3 0.2-6.3 0.3-2 0.6-4 0.4 0.4 0.7 0.8 0.7 0.8 2.2 1.9 1.5 1 3 1.4 1.4 0.4 2.7 0 1.2-0.4 1.3-1.1 0.2-0.6-0.3-5.2-0.5-4.7-0.5-6 0-1.4 0.3-1.5 0.2-0.1 1.8 0.4 0.8 0.3 1.6 0.6 0.2 0.9 0.4 1.7 0.4 1.8 0.9 2.7 0.5 0.9 1.7 2.1 1.2 1.1 3.2 1.9 1.9 0.8 3.4 0.4 1.4-0.3 1.6-4.1 0.1-3.7-0.3-11.7-0.4-7.9 0.4-7.8 0.7 0.2 1 0.9 0.2 0.7 1.9 12.2 1.8 11.6 2.6 12.9 0.9 1.3 2 2.1 1 0.9 3.4 1.4 2.4 0.6 3.3-0.3 0.8-0.8 0.4-9.1-0.2-4.2-0.4-8.3 0.2 0.2 0.3 0.4 0.3 0.4 0.6 1.6 0.3 1.2 2.2 2.6 1.9 1.4 3.7 1.5 1.9 0 4 0.9 2 0.9 3.3 0.7 1.2-0.2 1.6-0.8 0.4-0.6 0.4-9.9-0.1-4.7-0.1-9.3 0.3 2 0.7 3.9 0.6 4 1.1 5.3 0.6 1.3 1.3 2 0.8 0.8 2 1.4 1.1 0.6 3.4 0.6 2.2 0.1 2.8-1 0.5-1 0.9-8.2 0.1-3.6 0.3-7.2 0.8 0.8 1.5 1.6 1.5 1.6 2.9 2.7 1.4 1 2.7 1.5 1.4 0.5 2-0.2 0.5-0.6 0.6-6.9 0-6.2 1.3-6.1 1.4 0.1 2.7 1.6 1.4 1.4 3.4 2.8 1.9 1.3 3.2 1.2 1.3 0 1.9-5.8 0.6-5.7 0.9-5.7 0.4 0.1 0.7 0.7 0.3 0.6 1.7 1.6 1.5 1 2.7 1.4 1.3 0.3 2.6 0.1 1.3-0.3 1.9-1.8 0.6-1.4 0.9-5.3 0.3-3.8 2.3-2.9 2 1 2.7 0.7 0.6-0.3 1-4.6 0.3-4.3 0.6-4.4 0.3-0.2 2 0 0.8 0.1 1.6 0.1 0 3.2 0 6.4 0 6.4 0.6 7.7 0.5 1.3 1.5 2.5 1 1.3 2.7 2.8 1.7 1.4 3.6 2.1 1.8 0.6 2.1 0.3 0.2-0.3 0.2-14.3-0.1-13.9 0.5-13.6 0.2 0.1 0.5 0.3 0.1 6.3 0.1 12.5 0.1 12.6 0.8 13.7 0.6 1 1.9 1.9 1.3 0.9 2.6 1.2 1.3 0.3 2.7 0 1.4-0.3 1.7-1.2 0.3-0.9 0.3-13.3-0.1-12.5 0.2-12.8 0.2-0.3 1.1 0.8 1 1.1 2.7 1.8 1.7 0.7 2.9 0.7 1.2-0.1 2.1-0.7 0.8-0.6 3-14.1 1.1-6.8 2.2-13.5 0.2 0.1 0.3 0.2 0.2 0.3 0 8.4-0.2 8 0.4 9.5 0.6 1.4 1.5 2.1 0.8 0.8 2.6 1.4 1.8 0.7 3.6 0.2 1.9-0.6 4.3-9.7 1.1-4.6 2.3-9.2-0.2 4.4-0.5 8.8-0.5 8.8 0 9.7 0.6 0.9 2.1 1.9 1.6 1 3 1.3 1.3 0.2 2.3 0 0.9-0.3 1.4-1.2 0.6-0.8 2.5-15.8 2-14.9 3.8-24.8 1.9-9.8 2.7-12.9 0.4-1.6 0.8-3.2-0.1 6.1-0.2 12.2-0.3 12.2-1.2 25.6-0.9 13.5 0 14.9 1 1.5 2.1 2.1 1 0.7 2.7 1 1.6 0.4 2.8-0.2 1.2-0.7 1.9-4.3 0.6-3.6 1.6-2.7 1 0.8 2.3 1.4 1.3 0.5 3.2 0.1 2-0.4 3.3-6.9 1.2-6.4 2.8-16.9 1.6-10.6 2.6-24.2 1-13.7 0.9-22.1 0-8.3-1-9.9-1-1.6-2-2.3-1-0.7-2.6-1.1-1.5-0.4-3 0.2-1.4 0.5-2 1.8-0.7 1.3-2.3 7.9-0.8 3.3-1.6 6.6 0-2.9 0-5.8 0-5.8-0.3-9.9-0.3-4.1-1-5.2-0.6-1-1.8-2-1.3-0.9-2.4-1.3-1.2-0.4-2.8-0.2-1.6 0.3-2.6 2.1-1 1.9-2.9 9.4-1.9 7.6-3.3 6.4-1.4-1.3-2.4-1.8-1-0.4-2.3-0.6-1.2-0.1-2.3 0.4-1.1 0.5-2.2 4.4-1.1 3.9-3.1 13-1.9 9.1-2.2 9.4-0.1 0.2-0.3 0.4 0-3.7-0.1-7.3-0.1-7.4-0.8-8.9-0.8-1.6-2.3-2.6-1.5-1-3.2-1.3-1.7-0.3-3 0.3-1.3 0.7-2.2 3.3-0.9 2.6-1.7 6.2-0.7 3.7-1 3.9-0.2 0.1-0.4 0.1 0.2-2.2 0.3-4.5 0.2-4.6-0.1-7.6-0.2-3-0.9-4-0.7-1-1.5-1.6-0.7-0.6-2.1-1.1-1.3-0.5-2.3-0.4-1 0.1-1.1-0.2-0.2-0.3 0.6-8.7 0.9-8.3 1.5-11.6 0.7-3.2 0.5-4.5-0.2-1.2-1.5-2.3-1.2-1.2-3.7-1.7-2.5-0.5-3.5 0.4-1 0.9-3.7 15.1-2.7 14.1-4.1 23.4-0.7 4.6-1.4 9.2-0.1-6.5-0.2-13.1-0.3-13-1.2-14.9-0.8-1.9-1.7-3-1-1.1-2.7-2.6-1.8-1.4-3.1-2-1.2-0.5-1.9-0.2-0.7 0.4-2.1 6.5-1.3 6.1-2.3 12.3-0.5 3-1 6.1-0.2-4.4-0.5-8.7-0.5-8.7-1.3-10-0.7-1.4-2.4-3.1-1.6-1.7-3.4-2.9-1.9-1.2-3.1-1.1-1.1 0.2-2.9 9.8-1.7 9.7-3.3 22.1-1.6 12.4-1.8 12.4-0.1-0.1-0.2-0.1 0-2.2 0-4.3 0.1-4.3 0.6-11.6 0.5-7.2 0.2-8-0.3-0.9-1.5-2.4-1.1-1.6-3.4-3.4-2.2-1.7-3.7-2-1.4-0.2-2.5 6.3-1.1 6.6-1.3 6.7-0.2 0.1-1.2-1.1-1-1.3-2.6-2.4-1.5-1.2-2.8-1.7-1.4-0.5-1.9-0.3-0.5 0.3-1.3 6.7-0.8 6.4-1.3 16.8-0.6 10.4-0.8 17.8-0.1 7.5 0.2 15.5 0.2 8-0.7 13.9-0.4 3-0.9 5.9-0.3-3.3-0.6-6.5-0.5-6.5-1-22.2-0.5-15.7-0.4-24.1 0.1-8.4 0.6-14.9 0.6-6.4 0-7.5-0.5-1.1-1.5-2-1-0.8-3.3-1.4-2.2-0.7-3.4-0.1-1.1 0.6-1.9 3.1-0.8 2.5-2.1 2.6-1.3 0.1-2 0.6-0.8 0.6-0.8 9.2 0 8.5-1.1 15.3-0.6 3.4-1.1 6.7-1.3-9.2-2.6-18.5-2.5-18.5-3.4-19.8-1-1.3-2.3-2.2-1.3-0.9-3.1-1.4-1.7-0.4-2.8 0.1-1.1 0.5-1.3 4.3-0.2 3.8-0.1 31.1 0.1 13.7 0.2 27.3-1.1-8.3-2.2-16.7-2.2-16.8-2.7-17.9-0.5-1.1-1-1.8-0.6-0.7-3-2-2.5-1.3-4.2-0.8-1.7 0.4-1.8 11.7-0.1 5.7-0.1 11.4-0.4-2.9-0.8-5.7-0.7-5.7-1.7-7.1-1-1.4-2.1-2.2-1.2-0.8-3-1.3-1.8-0.4-2.6-0.2-0.9 0.2-1.2 1.3-0.3 1.2-1.4 0.2-1.2-1-3.3-1.7-2.1-0.7-3.1-0.4-1 0.3-1.3 0.9-0.3 0.5-0.2 2.2 0.1 1.7-0.2 1.9-0.3 0.1-1.6-0.8-1.4-0.9-2.3-1-0.5 0-0.9-0.1-0.2-1.3-0.3-2.6-0.3-2.5-0.2-3.6 0.2-1-1-2.8-1.2-1.7-3.6-3.4-2.5-1.7-3.3-1.9-0.8-0.2-1.6 0.3-0.9 0.4-0.9 2.6z"/><path fill-rule="evenodd" d="m709.7 2.2q24.3 3.2 32.1 8.4 7.9 5.1 17.8 15.4 9.8 10.3 17 23.8 7.3 13.5 9.9 25.1 2.6 11.6 3.3 34.7 0.6 23.2-3.3 50.8-2 13.9-4 27.7 6.3-0.7 12.5-1.3 12.5-1.3 19 2.6 6.6 3.8 5.3 9-1.3 5.1-9.8 14.1-8.6 9-25.6 32.8-17.1 23.8-17.1 27.1 0 3.2 20.3 36.6 20.4 33.5 20.4 36 0 2.6-3.3 5.2-3.3 2.6-11.2 1.9-7.8-0.6-15.7-3.8-3.9-1.7-7.9-3.3 4.9 6.8 9.9 13.5 9.8 13.6 15.1 26.4 5.2 12.9 7.2 21.2 2 8.4 0.6 31.6-0.6 11.5-1.3 23.1 5.9-2.6 11.8-5.1 11.9-5.2 17.8-10.3 5.9-5.2 9.2-10.3 3.2-5.2 9.1-27.7 5.9-22.5 7.9-43.7 2-21.2 6.6-45 4.6-23.8 9.2-38.6 4.6-14.8 12.4-32.2 7.9-17.4 13.2-25.1 5.2-7.7 21-22.5 15.7-14.8 28.9-19.9 13.1-5.2 25.6-7.1 12.4-1.9 32.1-0.6 19.7 1.2 36.8 6.4 17.1 5.1 32.8 17.4 15.8 12.2 26.3 25.7 10.5 13.5 20.3 41.1 9.8 27.7 12.5 47.6 2.6 20 2.6 43.8 0 23.8-5.9 57.9-5.9 34.1-18.4 64.3-12.4 30.2-25.6 50.8-13.1 20.6-23.6 33.5-10.5 12.8-34.2 30.8-23.6 18-43.3 29-19.7 10.9-32.8 16.1-13.1 5.1-42.7 10.9-29.5 5.8-61 7.1-31.5 1.3-36.8 0-2.6-0.7-5.2-1.3 4.6 13.2 9.2 26.4 9.2 26.3 11.8 55.9 2.6 29.6 0.6 47.6-1.9 18-5.9 33.5-3.9 15.4-15.7 38.6-11.8 23.1 24.9 64.9 36.8 41.8 50.6 55.3 13.8 13.5 25.6 32.2 11.8 18.7 18.4 39.2 6.5 20.6 7.8 38.6 1.3 18 0 36-1.3 18.1-7.8 48.9-6.6 30.9 8.5 36.7 15.1 5.8 26.9 18.6 11.8 12.9 15.8 22.6 3.9 9.6 2.6 30.8-1.3 21.3-7.9 33.5-6.6 12.2-15.7 20.6-9.2 8.3-21.7 14.8-12.5 6.4-31.5 11.5-19.1 5.2-68.3 6.5-49.2 1.3-65.6 0-16.4-1.3-34.2-4.5-17.7-3.3-38.7-12.2-21-9.1-32.2-18.7-11.1-9.7-17-18-5.9-8.4-10.5-19.3-4.6-11-5.9-20.6-1.3-9.6 1.9-43.1 3.3-33.4 13.8-74 10.5-40.5 10.5-55.3 0-14.8-19-45-19.1-30.2-30.2-45-11.2-14.8-22.3-12.9-11.2 1.9-29.6 1.9-18.3 0-46.6 97.8-28.2 97.8-34.8 114.5-6.5 16.7 4.6 27.7 11.2 10.9 18.4 23.8 7.2 12.8 9.2 22.5 2 9.6 2 21.2 0 11.6-3.3 22.5-3.3 10.9-13.8 25.1-10.5 14.1-26.3 21.9-15.7 7.7-35.4 10.9-19.7 3.2-49.9 0.6-30.2-2.5-65-16-34.8-13.5-54.4-27.1-19.7-13.5-30.9-23.8-11.2-10.2-25.6-27.6-14.4-17.4-24.9-39.2-10.6-21.9-10.6-32.9 0-10.9 6.6-32.8 6.6-21.8 33.5-74.6 26.9-52.7 60.4-127.3 33.5-74.6 32.8-77.9-0.6-3.2-7.9-13.5-7.2-10.3-7.2-12.8 0-2.6-5.9-11-5.9-8.3-6.6-12.8-0.6-4.5-1.9-4.5-1.3 0-9.9-29.6-4.2-14.8-8.5-29.6-3.9 8.7-7.9 17.4-7.9 17.3-17.1 30.2-9.2 12.9-33.4 36.7-24.3 23.8-34.8 30.2-10.5 6.4-25.6 11.6-15.1 5.1-33.5 7-18.4 2-36.8-3.8-18.3-5.8-24.9-11-6.6-5.1-15.1-15.4-8.5-10.3-13.8-22.5-5.2-12.2-7.9-23.2-2.6-10.9-3.2-28.3-0.7-17.3 1.3-32.1 1.9-14.8 6.5-30.3 4.6-15.4 12.5-32.1 7.9-16.7 23.6-41.2 15.8-24.4 33.5-46.9 17.7-22.5 32.8-36.7 15.1-14.2 30.2-24.4 15.1-10.3 41.4-32.2 26.2-21.9 45.9-34.1 19.7-12.2 30.2-16.7 10.5-4.5 10.5-5.8 0-1.3-4.6-3.9-4.6-2.5-4.6-5.8 0-1.6 0-3.2-0.9 0.3-1.9 0.7-2 0.6-3.3-0.7-1.3-1.3-1.3-5.1 0-3.9-4.6-6.5-4.6-2.5-4-4.5 0.4-0.9 0.7-1.9-1 0-2 0-1.9 0-3.9-2.6-2-2.5-2.6-8.3-0.7-5.8-2.7-5.8-0.9 0-1.9 0 0.3-1 0.6-1.9 0.7-2-2-9-1.2-3.6-2.6-7.1-1 0.6-1.9 1.3-1 0.6-2 1.3 0.3-2.3 0.6-4.5 0.7-4.6 0-6.5-0.3-0.9-0.6-1.9-1 0.3-2 0.6-1 0.4-1.9 0.7 0.6-1.3 1.3-2.6 1.3-2.6-2.7-7.7-3.9-5.2-9.2-32.8-5.2-27.7-3.2-50.2 1.9-22.5-0.7-27.6-2.6-5.2 0.7-8.4 3.3-3.2-4.6-11.6-7.9-8.4-19.1-27-11.1-18.7-15.1-34.1-3.9-15.4-4.6-29.6-0.6-14.1 0.7-14.8 1.3-0.6 0.7-3.8-0.7-3.3 1.3-4.5 1.9-1.3 1.3-9.7-0.7-8.3 0.6-9 1.4-0.6 2.7-11.6 1.3-10.9 7.8-25.7 6.6-14.8 12.5-22.5 5.9-7.7 21-20 15.1-12.2 28.2-18 13.2-5.8 24.3-7.7 11.2-1.9 23-1.9 11.8 0 27.6 4.5 15.7 4.5 32.1 15.4 16.4 11 19.7 15.5 3.3 4.5 5.9 4.5 2.7 0 27-11 24.2-10.9 53.1-17.3 28.9-6.5 60.4-6.5 31.5 0 51.9 4.5 20.3 4.5 31.5-7.7 11.1-12.2 19-17.3 7.9-5.2 24.3-11.6 16.4-6.5 30.9-8.4 14.4-1.9 38.7 1.3zm-35.5 12.2q-17.7 3.9-24.9 7.1-7.2 3.2-17.1 11.6-9.8 8.3-15.1 15.4-5.2 7.1-5.9 10.3-0.6 3.2 15.1 10.9 15.8 7.8 28.9 0 13.1-7.7 26.3-7.7 13.1 0 21.6 2.6 8.6 2.6 14.5 6.4 5.9 3.9 12.4 13.5 6.6 9.7 8.6 19.3 1.9 9.7 1.3 20.6-0.7 10.9-4 24.5-3.2 13.5 5.3 28.9 8.5 15.4 15.1 14.8 6.6-0.7 11.1-26.4 4.6-25.7 4.6-48.9 0-23.1-3.9-40.5-3.9-17.4-9.9-27.6-5.9-10.3-14.4-19.3-8.5-9-19.7-14.2-11.1-5.1-21.6-5.1-10.5 0-28.3 3.8zm-415.5 34.1q-9.2 1.9-23.6 10.3-14.5 8.4-21 15.4-6.6 7.1-13.8 26.4-7.2 19.3-7.9 36-0.6 16.8 3.3 38 3.9 21.2 11.2 39.2 7.2 18 15.1 29.6 3.9 5.8 7.8 11.6 1-0.7 2-1.3 2-1.3 4-10.9 1.9-9.7 5.9-18.7 3.9-9-0.7-18.6-4.6-9.7-10.5-30.9-5.9-21.2-4.6-36 1.3-14.8 6.6-25.1 5.2-10.3 9.8-14.8 4.6-4.5 11.8-8.4 7.2-3.8 22.4-5.8 15-1.9 24.2 2 9.2 3.8 19.1 12.2 9.8 8.3 23.6-1.9 6.9-5.2 13.8-10.3-2-2.6-3.9-5.2-4-5.1-21.7-16.7-17.7-11.6-29.6-14.8-11.8-3.2-22.9-3.2-11.2 0-20.4 1.9zm233.1 9.7q-15.1 2.5-15.1 3.8 0 1.3 5.2 5.8 5.3 4.5 19 23.8 13.8 19.3 21 31.5 7.3 12.2 6.6 14.8-0.3 1.3-0.6 2.6-1.4-0.3-2.7-0.7-2.6-0.6-5.2-3.8-2.7-3.2-22.3-32.2-19.7-28.9-25-34.1-5.2-5.1-12.5-4.5-7.2 0.7-24.9 7.1-17.7 6.4-38.1 16.1-20.3 9.6-41.3 23.1-21 13.6-44 35.4-23 21.9-36.8 44.4-13.7 22.5-19.7 38.6-5.9 16.1-9.8 36-3.9 20-2.6 54.7 1.3 34.7 7.8 58.5 6.6 23.8 12.5 37.3 5.9 13.5 20.4 33.5 14.4 19.9 23.6 28.3 4.6 4.2 9.2 8.3 0-11.2 0-22.5 0-22.5 4.6-34.1 4.6-11.5 9.8-18.6 5.3-7.1 5.3-41.8 0-34.8-5.9-38-5.9-3.2-25.6-9-19.7-5.8-25.6-9-5.9-3.2-7.3-6.4-1.3-3.2 11.9-10.3 13.1-7.1 39.4-17.4 26.2-10.3 31.5-44.4 5.2-34 9.1-45 4-10.9 11.9-10.3 7.8 0.7 15.1 9 7.2 8.4 24.3 22.5 17 14.2 22.3 21.3 5.2 7 41.3-1.3 36.1-8.4 44-6.4 7.9 1.9 9.2 6.4 1.3 4.5-8.5 18.6-5 7.1-9.9 14.2 7.9-1.9 15.8-3.9 15.7-3.8 15.7-7 0-3.3 4.6-6.5 4.6-3.2 44.7-17.3 40-14.2 42-16.8 1.9-2.5 7.8-30.2 5.9-27.7 10.5-39.2 4.6-11.6 12.5-11 7.9 0.7 17.7 12.9 9.9 12.2 21.7 23.1 11.8 11 15.8 17.4 3.9 6.5 6.5 9 2.6 2.6 5.9 2 1.7-0.4 3.3-0.7-3.9-7.1-7.9-14.1-7.8-14.2-21-29.6-13.1-15.5-26.2-27.7-13.2-12.2-31.5-24.4-18.4-12.3-48-25.1-29.5-12.9-46.6-16.1-17-3.2-33.4-3.2-16.5 0-31.5 2.6zm195.6 16.7q0.6 3.8 1.9 3.8 0.7 0 1.3 0-0.3-1.9-0.6-3.8-0.7-3.9-2-3.9-0.6 0-1.3 0 0.3 2 0.7 3.9zm9.1 3.8q4.7 6.5 7.9 29.6 3.3 23.2 7.2 26.4 2 1.6 4 3.2-2-10-4-19.9-3.9-20-2.6-21.2 1.3-1.3 0.7-5.2-0.3-1.9-0.7-3.9 0.7 1 1.3 2 1.3 1.9 4.6 1.3 1.7-0.4 3.3-0.7-2.6-3.5-5.2-7.1-5.3-7-8.6-9-3.2-1.9-7.9-1.9-2.2 0-4.5 0 2.3 3.2 4.5 6.4zm-23.6-2.5q-0.3 0.6-0.6 1.3 1.6 0.6 3.2 1.2 1.7 0.7 3.3 1.3-1.3-1.3-2.6-2.5-1.3-1.3-2.6-2.6-0.4 0.6-0.7 1.3zm5.3 16q1.6 6.2 3.3 12.3 0-2.3 0-4.5-0.1-4.5-3.3-12.3-1.7-3.8-3.3-7.7 1.6 6.1 3.3 12.2zm-15.1-9q-1.3 2 0.6 5.8 2 3.9 3.3 3.9 0.7 0 1.3 0-0.3-2.9-0.6-5.8-0.7-5.8-2-5.8-1.3 0-2.6 1.9zm26.2 0q0 1 0 2 0.7 0 1.3 0 0.7 0 1.4 0 0-1 0-2 0-0.9 0-1.9-0.7 0-1.4 0-0.6 0-1.3 0 0 1 0 1.9zm-424.7 13.6q-2.9 1.9-5.9 3.8 3.6-1.3 7.2-2.6 7.3-2.5 11.9-2.5 4.6 0 5.2-1.3 0.3-0.7 0.7-1.3-3.3 0-6.6 0-6.6 0-12.5 3.9zm14.5 24.4q-0.4 3.9-0.7 7.7 2-1 4-1.9 3.9-1.9 3.9-3.9 0-1.9 3.3-5.1 1.6-1.6 3.3-3.2-3.3-0.4-6.6-0.7-3.3-0.3-6.6-0.6-0.3 3.8-0.6 7.7zm-34.8 6.4q-1.3 5.2 0.6 6.5 1 0.6 2 1.2 0.3-1.9 0.7-3.8 0.6-3.9-0.7-6.4-0.6-1.3-1.3-2.6-0.7 2.6-1.3 5.1zm14.4 7.1q0 7.1 3.3 7.7 1.6 0.3 3.3 0.7 0-0.7 0-1.3 0-0.7 0-1.3 1 0 2 0 0.9 0 1.9 0 0-1.9 0-3.9 0-3.8-5.2-6.4-2.7-1.3-5.3-2.6 0 3.6 0 7.1zm-15.1 17.4q0.7 7.7 3.3 13.5 1.3 2.9 2.6 5.8 0-2.9 0-5.8 0-2.9 0-5.8-1 0-1.9 0-1 0-2 0 0.7-2.9 1.3-5.8 1.3-5.8-1.3-7.7-1.3-1-2.6-1.9 0.3 3.8 0.6 7.7zm296.1 16.7q1.9 0.6 3.9 1.3 3.9 1.3 6.6 9 2.6 7.7 1.9 12.2-0.3 2.3-0.6 4.5-1.3-0.6-2.6-1.3-2.7-1.3-4.6-5.1-2-3.9-4-9.7-1.9-5.8-1.3-8.3 0.3-1.3 0.7-2.6zm442.4 18.6q-14.4 3.3-23 7.8-8.5 4.5-17.7 13.5-9.2 9-17.1 19.9-7.8 10.9-17.7 35.4-9.8 24.4-3.9 28.3 5.9 3.9 13.1 4.5 7.2 0.6 9.8 3.9 1.4 1.6 2.7 3.2-3.3 0.3-6.6 0.6-6.6 0.7-17.1-3.2-5.2-1.9-10.5-3.9-2.6 13.2-5.2 26.4-5.3 26.4-7.2 47-2 20.5-7.3 39.8-5.2 19.3-5.2 23.2 0 3.9 15.1 23.8 15.1 19.9 28.9 46.3 13.8 26.4 23.6 52.8 9.8 26.3 13.8 42.4 1.9 8.1 3.9 16.1 6.3-3.2 12.5-6.4 12.5-6.5 13.8-9.7 1.3-3.2 3.9-2.6 2.6 0.7 9.2-3.8 6.6-4.5 17.1-12.9 10.5-8.4 25.6-25.1 15.1-16.7 24.9-32.1 9.9-15.5 14.5-30.3 4.6-14.8 9.1-22.5 4.7-7.7 4-11.6-0.7-3.8 2-7 2.6-3.2 1.3-7.1-1.3-3.9 0.6-7.1 2-3.2 2.7-10.3 0.6-7.1 2.6-9.6 1.9-2.6 0.6-6.5-0.6-1.9-1.3-3.8 1-0.3 2-0.7 2-0.6 0-9-2-8.3 0-39.2 2-30.9 3.3-31.5 1.3-0.7 0.6-10.3-0.6-9.7-3.3-9.7-2.6 0-11.8 5.2-9.2 5.1-22.9 8.3-13.8 3.3-27 3.9-13.1 0.7-16.4-1.9-3.2-2.6-1.9-4.5 1.3-2 12.4-2.6 11.2-0.6 24.3-3.9 13.2-3.2 23.7-8.3 10.5-5.2 17-10.3 6.6-5.2 6.6-9.7 0-4.5-7.2-24.4-7.3-19.9-19.1-35.4-11.8-15.4-19.7-21.8-7.8-6.5-17-10.3-9.2-3.9-26.9-5.2-17.8-1.3-32.2 1.9zm-446.4 99.7q-43.3 10.3-47.2 16.1-4 5.8-4 8.4 0 2.6 4.6 9 4.6 6.4 7.2 6.4 2.7 0 16.5-6.4 13.7-6.4 27.5-9.7 13.8-3.2 32.8-3.8 19.1-0.7 29.6 0.6 5.2 0.7 10.5 1.3 0-4.8 0-9.6 0-9.7-17.1-16.1-17-6.4-60.4 3.8zm147.1 50.2q-19.7 16.7-27.6 32.8-7.9 16.1-22.3 35.4-14.5 19.3-26.9 30.2-12.5 11-21 13.5-8.6 2.6-6.6 21.9 2 19.3 0.7 25.1-1.4 5.8-9.9 13.5-8.5 7.7-17.7 12.9-9.2 5.1-36.8 14.8-27.5 9.6-36.7 9-9.2-0.7-14.5-5.2-5.2-4.5-6.5-7.7-1.4-3.2 0-10.3 1.3-7.1 9.8-12.9 8.5-5.8 40.1-7.7 31.5-1.9 42.6-5.1 11.2-3.2 13.1-7.1 2-3.9 0.7-21.2-1.3-17.4-9.8-20-8.6-2.5-42.1-19.3-33.4-16.7-43.9-27.6-10.5-11-12.5-14.8-2-3.9-2-9 0-5.2-13.1-10.3-13.1-5.2-16.4-5.2-3.3 0-33.5 29.6-30.2 29.6-32.8 30.9-2.6 1.3-9.9 0.7-7.2-0.7-8.5 0.6-1.3 1.3-6.6 16.7-5.2 15.5-4.6 23.2 0.7 7.7 4 16.7 3.3 9 11.8 21.9 8.5 12.8 15.1 18.6 6.6 5.8 9.8 6.5 3.3 0.6 5.3 2.5 2 2 1.3 3.2-0.3 0.7-0.6 1.3 2.6 0.7 5.2 1.3 5.3 1.3 5.9 3.2 0.7 2 28.9 12.9 28.2 10.9 36.1 12.2 7.9 1.3 16.4 0.7 8.5-0.7 10.5 1.3 2 1.9 7.2 2.5 5.3 0.7 30.2 0.7 25 0 57.1-3.9 32.2-3.9 49.3-9 17-5.1 24.9-9.7 7.9-4.5 12.5-5.1 4.6-0.6 6.5-2.6 2-1.9 25-10.3 23-8.3 40.7-18.6 17.7-10.3 29.5-23.2 11.8-12.8 15.1-19.9 3.3-7.1 5.9-19.3 2.7-12.2 2.7-25.7 0-13.5-3.3-25.8-3.3-12.2-8.6-21.8-5.2-9.7-13.1-19.3-7.9-9.7-15.1-14.8-7.2-5.2-24.3-12.9-17-7.7-36.7 9zm-122.1-7.7q-27.6 5.1-40.1 10.3-6.2 2.6-12.4 5.1 5.9 8.7 11.8 17.4 11.8 17.4 9.2 21.9-2.7 4.5-12.5 4.5-9.9 0-28.9-5.2-19-5.1-20.3-1.3-1.4 3.9 0.6 7.8 2 3.8 24.3 18 22.3 14.1 42 23.1 19.7 9 25 9.7 5.2 0.6 7.2-2.6 2-3.2 6.5-5.1 4.6-2 17.1-14.2 12.5-12.2 25-27 6.2-7.4 12.4-14.8-3.6-1.6-7.2-3.2-7.2-3.2-7.9-26.4-0.6-23.1-12.4-23.1-11.8 0-39.4 5.1zm489.7 14.1q1.9 0 3.9 0 0 6.5 0 12.9 0 12.9-3.9 43.8-4 30.8-9.9 55.3-5.9 24.4-7.9 27.6-1.9 3.2-6.5 4.5-4.6 1.3-5.9-1.3-1.3-2.5 2.6-13.5 3.9-10.9 9.2-38.6 5.2-27.6 7.2-57.2 2-29.6 4.6-31.5 2.6-2 6.6-2zm-809.4 83.7q0.7 3.8 2 3.8 1.3 0 3.9 5.2 2.6 5.1 0.7 7.7-1 1.3-2 2.6 1.6-0.4 3.3-0.7 1.6-0.3 3.3-0.6-1-2.9-2-5.8-2-5.8-5.9-10.9-2-2.6-4-5.2 0.4 1.9 0.7 3.9zm129.3 3.8q2.6 1.3 2.6 3.9 0 2.6-1.3 3.8-1.3 1.3-3.3 14.2-1.9 12.9-4.6 13.5-1.3 0.3-2.6 0.6-0.3-4.8-0.6-9.6-0.7-9.6 0.6-15.4 1.3-5.8 4-9 2.6-3.3 5.2-2zm-128 6.5q1 1.9 2 3.8 0-1.3 0-2.6 0-2.5-2-3.8-1-0.7-2-1.3 1 1.9 2 3.9zm9.2 11.5q-1 1.3-2 2.6 1.3-0.3 2.7-0.6 2.6-0.7 3.2 0.6 0.4 0.7 0.7 1.3-0.7-1.6-1.3-3.2-0.7-1.6-1.3-3.2-1 1.3-2 2.5zm592.7 16.8q-11.8 9-29.5 15.4-17.7 6.4-31.5 21.9-13.8 15.4-28.2 25.1-14.5 9.6-15.1 11.5-0.7 2 2.6 5.2 3.3 3.2 6.6 3.2 1.6 0 3.2 0 0 1.6 0 3.2 0 3.2 3.3 5.2 1.7 0.9 3.3 1.9-0.6 0.6-1.3 1.3-0.7 0.6-1.3 1.3 0.6 0.3 1.3 0.6 0.7 0.3 1.3 0.6 0.3-0.6 0.7-1.2 0.3-0.7 0.6-1.3 0.7 1.9 1.3 3.8 0.7 1.9 1.4 3.9 0-1.3 0-2.6 0-1.3 0-2.6 0.9 0.4 1.9 0.7 2 0.6 1.3 3.2-0.6 2.6 0.7 4.5 1.3 1.9 4.6 0.7 1.6-0.7 3.3-1.3-0.4 1.2-0.7 2.5-0.7 2.6 1.3 4.5 2 2 4 3.3 1.9 1.2 3.2 1.2 0.7 0 1.4 0-0.4-0.9-0.7-1.9-0.3-1-0.7-1.9 1.4 0.3 2.7 0.6 1.3 0.3 2.6 0.7-0.7 1.2-1.3 2.5-0.7 1.3-1.3 2.6 1 0 1.9 0 2 0 2.7 1.9 0.3 1 0.6 2 0-1 0-2 0-0.9 0-1.9 1 0 2 0 1 0 2 0 0 1.6 0 3.2 0 3.2 9.1 10.3 9.2 7.1 37.5 23.8 28.2 16.7 32.8 17.4 4.6 0.6 29.5-5.2 25-5.8 26.9-7 2-1.3 2-4.5 0-3.2-2.6-13.5-2.7-10.3-13.8-41.2-11.2-30.9-25-57.3-13.7-26.3-24.2-39.8-5.3-6.8-10.5-13.5-5.9 4.5-11.9 9zm-581.5 3.2q0 1.9 1.9 2.6 1 0.3 2 0.6 0-1 0-1.9 0-2-2-2.6-1-0.3-1.9-0.7 0 1 0 2zm114.2 28.9q1.3 0 2.6 0 2.6 0 5.3 3.2 2.6 3.3 2.6 7.8 0 2.2 0 4.5-1 0-2 0-2 0-5.2-3.3-3.3-3.2-3.3-7.7 0-2.2 0-4.5zm-95.2 12.9q0.3 0.6 0.7 1.3 0.3-0.7 0.6-1.3 0.3-0.7 0.7-1.3-0.7 0-1.3 0-0.7 0-1.4 0 0.4 0.6 0.7 1.3zm-7.9 5.1q0.4 0.7 0.7 1.3 0.3-0.6 0.6-1.3 0.4-0.6 0.7-1.2-0.7 0-1.3 0-0.7 0-1.3 0 0.3 0.6 0.6 1.2zm27.6 1.3q-8.5 2.6-10.5 4.5-2 2-6.6 2-4.6 0-6.5 3.8-2 3.9-6 5.2-3.9 1.2-5.9 4.5-1.9 3.2-7.8 5.1-5.9 1.9-8.6 5.8-2.6 3.8-5.2 3.8-2.6 0.1-3.3 3.3-0.3 1.6-0.7 3.2 2.3-2.3 4.6-4.5 4.6-4.5 7.3-3.9 1.3 0.4 2.6 0.7-3.9 2.5-7.9 5.1-7.9 5.2-23 20-15.1 14.7-25.6 22.5-10.5 7.7-9.8 10.9 0.6 3.2 17.7 23.2 17.1 19.9 37.4 37.9 20.4 18 24.3 19.3 3.9 1.3 13.8-9.6 9.8-11 14.4-13.6 4.6-2.5 9.2-2.5 4.6 0 8.6 3.2 3.9 3.2-3.3 16.1-7.2 12.8-10.5 29.6-3.3 16.7-4.6 20.5-1.3 3.9-2.6 3.9-0.7 0-1.3 0 0.6 0.6 1.3 1.3 1.3 1.3 1.3 14.8 0 13.5 5.2 43.7 5.3 30.3 34.2 39.3 28.8 9 68.2 14.7 39.4 5.8 97.2 5.8 57.7 0 86.6-3.8 28.9-3.9 68.3-12.9 39.4-9 76.8-23.8 37.4-14.8 48.6-20.6 11.1-5.8 16.4-10.3 5.2-4.5 5.2-12.8 0-8.4-1.9-12.2-2-3.9-4.6-28.3-2.7-24.5-13.2-57.9-10.5-33.5-22.3-57.9-11.8-24.5-18.4-33.5-6.5-9-11.1-18.6-4.6-9.7-8.6-13.5-3.9-3.9-15.1 0.6-11.1 4.5-24.9 19.3-13.8 14.8-32.2 26.4-18.4 11.6-32.1 14.8-13.8 3.2-37.4 3.8-23.7 0.7-41.4-2.5-17.7-3.3-32.8-10.3-15.1-7.1-26.3-9-11.1-2-48.5-14.8-37.5-12.9-56.5-21.9-19-9-38.1-23.8-19-14.8-30.8-10.9-5.9 1.9-11.8 3.8 1.9-0.9 3.9-1.9 3.9-1.9 3.9-3.2 0-1.3 5.9-2.6 3-0.6 6-1.3-0.7-0.6-1.4-1.3-1.3-1.3-9.8 1.3zm-25.6 16.7q0.7 0 1.3 0-0.3 1-0.6 2-0.7 1.9-11.2 7.7-5.3 2.9-10.5 5.8 0-0.7 0-1.3 0-1.3 7.9-5.2 7.8-3.8 9.8-6.4 2-2.6 3.3-2.6zm703 9.7q3.3 1.9 3.9 5.8 0.7 3.8-2.6 7.7-3.3 3.9-5.2 3.9-2 0-4-2.6-1.9-2.6-1.9-6.5 0-3.8 3.3-7 3.2-3.2 6.5-1.3zm-754.9 26.4q-4.9 5.1-9.8 10.3 5.6-4.9 11.1-9.7 5.6-4.8 11.2-9.6-0.6-0.4-1.3-0.7-1.3-0.6-11.2 9.7zm404.4-2.6q-1.7 0.6-3.3 1.3 0.3 0.6 0.7 1.3 0.3 0.6 0.6 1.3 0.7-0.7 1.3-1.3 1.3-1.3 5.9 0 2.3 0.6 4.6 1.3-0.6-1.3-1.3-2.6-1.3-2.6-3.3-2.6-1.9 0-5.2 1.3zm8.5 12.9q-13.1 5.1-33.5 10.2-20.3 5.2-35.4 7.1-15.1 1.9-34.1 1.9-9.6 0-19.1 0 9.2 1.7 18.4 3.3 18.4 3.2 46 1.2 27.5-1.9 41.3-7.7 13.8-5.8 21.7-11.5 7.8-5.8 9.2-7.1 0.6-0.7 1.3-1.3-0.7-0.3-1.3-0.6-1.4-0.7-14.5 4.5zm-81.4-1.3q-0.6 0.6-1.3 1.3 3-0.4 5.9-0.7 3-0.3 5.9-0.6-2.3-0.4-4.6-0.7-4.6-0.6-5.9 0.7zm-67.6 1.9q5.9 1.9 23 2.6 8.5 0.3 17.1 0.6-11.5-1.3-23-2.6-11.5-1.3-23-2.5 3 0.9 5.9 1.9zm56.5-1.3q-2 0.7-2 2.6 0 1 0 1.9-2.9-0.3-5.9-0.6-3-0.4-5.9-0.7 0 0.7 0 1.3 0 0.7 0 1.3 4.2 0 8.5 0 4.3 0 8.6 0-0.7-1-1.4-1.9-0.6-1-1.3-2 1.7-0.6 3.3-1.2 1.6-0.7 3.3-1.3-1.3 0-2.6 0-2.7 0-4.6 0.6zm31.5 1.3q-2.3 1-4.6 1.9 2.3 0.3 4.6 0.7 4.6 0.6 6.5-1.3 2-1.9 4.6-1.9 1.3 0 2.7 0-2.3-0.4-4.6-0.7-4.6-0.6-9.2 1.3zm-374.2 7.1q-9.8 7.7-13.1 12.8-1.7 2.6-3.3 5.2 6.2-5.2 12.5-10.3 12.5-10.3 13.1-12.9 0.3-1.3 0.7-2.5-5 3.8-9.9 7.7zm569.8 0q3.3 6.4 24.9 20.6 21.7 14.1 36.8 21.2 7.5 3.5 15.1 7.1-2-2-4-3.9-3.9-3.9-21-14.1-17-10.3-30.2-21.3-13.1-10.9-19-13.5-2.9-1.3-5.9-2.6 1.6 3.3 3.3 6.5zm-217.9-2.6q0.9 1.3 1.9 2.6 0.7-1 1.3-2 0.7-0.9 1.3-1.9 1 0.7 2 1.3 1 0.6 2 1.3 0-1 0-1.9 0-1 0-2-2.6 0-5.3 0-2.6 0-5.2 0 1 1.3 2 2.6zm-422.8 28.3q-13.8 12.9-26.9 29.6-13.1 16.7-30.8 43.7-17.8 27-27 47-9.1 19.9-9.1 22.5 0 2.6 15.1 7.1 15 4.5 21.6-11.6 6.6-16.1 22.3-45.7 15.8-29.6 17.1-31.5 1.3-1.9 5.9-1.3 4.6 0.7 6.6 3.9 1.9 3.2-10.5 24.4-12.5 21.2-23.7 45-11.1 23.9-11.1 26.4 0 2.6 3.9 4.5 4 2 4.6 4.5 0.7 2.6-2.6 5.2-3.3 2.5-5.9 2.5-2.6 0-7.9-3.8-5.3-3.9-19.7-9.7-14.4-5.8-17.7-5.1-3.3 0.6-4.6 5.8-1.3 5.1-2.6 30.9-1.3 25.7 4.6 47.6 5.9 21.8 18.3 37.3 12.5 15.4 25.6 20.5 13.2 5.2 20.4 4.5 7.2-0.6 26.2-7.7 19.1-7.1 42.7-28.3 23.6-21.2 38.7-43.1 15.1-21.8 25.6-51.4 10.5-29.6 9.9-36.7-0.7-7.1 1.3-11.6 2-4.5 3.3-18 1.3-13.5-17.1-30.2-18.4-16.7-44-45.7-25.6-28.9-30.2-36-4.6-7.1-6.5-7.7-2-0.7-15.8 12.2zm661 3.9q1.4 3.8 4.6 3.8 3.3 0 8.6 4.5 5.2 4.5 9.1 5.8 2 0.6 4 1.3-6.9-4.8-13.8-9.6-6.9-4.9-13.8-9.7 0.7 1.9 1.3 3.9zm68.3 6.4q1 0.6 2 1.3 1 0.6 1.9 1.3-0.9 0-1.9 0-1 0-2 0 0-0.7 0-1.3 0-0.7 0-1.3zm-36.8 11.6q0 1.3 4.6 2.5 2.3 0.7 4.6 1.3-2.3-1.3-4.6-2.5-2.3-1.3-4.6-2.6 0 0.6 0 1.3zm-28.2 173q-3.3 3.2-21 12.2-17.7 9-50.5 21.2-32.8 12.3-72.9 21.3-40 9-63.7 12.2-23.6 3.2-44 4.5-20.3 1.3-59 0.6-38.8-0.6-76.8-5.8-38.1-5.1-54.5-9-16.4-3.8-32.2-9.6-15.7-5.8-16.4-4.5-0.6 1.3 12.5 19.9 13.1 18.7 24.3 29.6 11.1 11 22.3 20 11.1 9 28.9 19.3 17.7 10.2 36.7 17.3 19.1 7.1 38.8 12.2 19.7 5.2 36.7 7.1 17.1 1.9 42.7 1.9 25.6 0.1 62.4-8.3 36.7-8.4 62.3-19.9 25.6-11.6 34.8-17.4 9.2-5.8 32.8-29 23.6-23.1 36.1-39.2 12.5-16.1 18.4-28.9 5.9-12.9 6.6-21.9 0.3-4.5 0.6-9-0.6 0-1.3 0-1.3 0-4.6 3.2zm-658.4 10.9q4 1.3 13.8 10.3 9.9 9 9.2 12.2-0.6 3.3-5.9 4.5-5.2 1.3-17.1-9-11.8-10.2-11.8-12.2 0-1.9 4-4.5 3.9-2.5 7.8-1.3zm645.3 75.9q-0.7 2.6 1.3 4.5 2 2 2 5.2 0 3.2-1.3 6.4-1.4 3.2-2.7 3.2-0.6 0-1.3 0 0.3 1.3 0.7 2.6 0.6 2.6-4 6.4-4.6 3.9-4.6 5.8 0 1 0 2-0.6 0-1.3 0-1.3 0-4.6 5.1-3.2 5.1-5.2 5.1-2 0-8.6 6.5-6.5 6.4-9.8 6.4-3.3 0-4.6 2.6-1.3 2.5-5.2 2.6-4 0-4.6 2.5-0.7 2.6-2 3.9-1.3 1.3-3.9 0.6-2.7-0.6-4.6 3.2-2 3.9-9.9 6.5-7.9 2.6-17.7 9-9.9 6.4-13.8 7.1-3.9 0.6-5.9-1.3-1-1-2-2-1.3 1.3-2.6 2.6-1.3 1.3-2.6 2.6-0.7-1-1.3-1.9-1.4-2-3.3-2-1 0-2 0 0 1.3 0 2.6 0 2.6-3.9 5.1-4 2.6 1.3 15.5 5.2 12.9 7.2 14.1 1 0.7 2 1.3-0.7 1-1.3 1.9-1.4 2-0.7 5.2 0.7 3.2 3.3 3.9 2.6 0.6 3.3 6.4 0.6 5.8 3.3 5.8 2.6 0 3.9 1.9 1.3 1.9 3.3 7.1 1.9 5.1 1.3 10.3-0.7 5.1 1.3 6.4 2 1.3 2.6 5.8 0.7 4.5 3.3 5.8 2.6 1.3 1.3 4.5-1.3 3.2-1.9 23.8-0.7 20.6-4 32.8-3.3 12.2-3.3 19.9 0 7.8-1.3 9-1.3 1.3-0.6 4.5 0.6 3.3-0.7 9.7-1.3 6.4-2.6 7.1-1.3 0.6-2 8.3-0.6 7.7-2.6 9.7-2 1.9-4 28.3-0.9 13.2-1.9 26.3 1-0.3 1.9-0.6 1-0.3 2-0.6 0.7 5.7 1.3 11.5 1.3 11.6 2 13.6 0.3 0.9 0.7 1.9 0.9-0.4 1.9-0.7 1-0.3 2-0.6-0.3 1-0.7 1.9-0.3 1-0.6 2 1-0.4 1.9-0.7 2-0.6 5.3 4.5 3.3 5.2 5.9 6.4 2.6 1.3 2.6 3.3 0 0.9 0 1.9 1-0.3 2-0.7 2-0.6 3.3 0.7 1.3 1.3 1.3 3.8 0 2.6 2 3.9 1.9 1.3 5.2 0.6 3.3-0.6 4.6 2.6 1.3 3.2 3.3 2.6 2-0.6 3.3 1.9 1.3 2.6 4.6 1.3 1.6-0.6 3.3-1.3-0.7 1-1.4 1.9-0.6 1-1.3 2 1.7-0.7 3.3-1.3 3.3-1.3 5.9 1.3 2.6 2.6 13.1 3.8 10.5 1.3 51.2-0.6 40.7-1.9 70.3-6.4 29.5-4.5 38.1-7.1 8.5-2.6 14.4-7.1 5.9-4.5 10.5-4.5 4.6 0 6.6-3.2 1.9-3.2 4.6-2.6 1.3 0.3 2.6 0.7-0.7-1.6-1.3-3.2-1.3-3.3 3.3-7.8 4.5-4.5 6.5-4.5 1 0 2 0-0.7-0.3-1.3-0.6-0.7-0.3-1.3-0.7 0.6-0.9 1.3-1.9 1.3-1.9 0-3.9-1.3-1.9-0.7-17.3 0.7-15.5-2-20.6-2.6-5.1-10.5-14.2-7.8-8.9-20.3-13.5-6.2-2.2-12.5-4.5 1-1.2 2-2.5 1-1.3 2-2.6-4-1-7.9-1.9-7.9-2-9.9-3.9-1.9-1.9-0.6-4.5 1.3-2.6 5.9-3.9 4.6-1.2 11.1-33.4 6.6-32.2 6.6-61.1 0-29-6.6-50.8-6.5-21.9-19.6-42.5-13.2-20.6-44.7-53.4-31.5-32.8-40-44.3-8.6-11.6-13.8-15.5-2.6-1.9-5.3-3.8-0.3 1.2-0.6 2.5zm-7.9 9.7q-0.3 1.6-0.7 3.2 1-1 2-1.9 1-1 2-2-0.7-0.6-1.3-1.2-0.7-0.7-1.3-1.3-0.4 1.6-0.7 3.2zm-3.3 6.4q0.7 1.6 1.3 3.2 0-1.6 0-3.2 0-1.6 0-3.2-0.6 0-1.3 0-0.6 0-1.3 0 0.7 1.6 1.3 3.2zm-8.5 7.1q0.7 2.6-0.7 4.5-0.6 0.9-1.3 1.9 1.3-1 2.7-1.9 2.6-1.9 2.6-3.9 0-1.9-2-2.5-1-0.4-2-0.7 0.4 1.3 0.7 2.6zm-29.5 18q-21.1 15.4-38.8 25.1-17.7 9.6-25.6 12.2-7.8 2.6-7.9 3.9 0 0.6 0 1.2 3.3-0.3 6.6-0.6 6.6-0.6 6.6-1.9 0-1.3 5.9-3.2 5.9-2 7.9-4.5 1.9-2.6 10.5-5.2 8.5-2.6 14.4-7.7 5.9-5.2 9.2-3.9 1.6 0.7 3.3 1.3 0.6-2.2 1.3-4.5 0.6-2.2 1.3-4.5 2.3 0.7 4.6 1.3 2.3 0.6 4.6 1.3-0.3-1.9-0.7-3.9-0.3-1.9-0.6-3.8 2.3 0.3 4.6 0.6 2.3 0.3 4.6 0.7-0.4-1.7-0.7-3.3-0.6-3.2 0.7-4.5 1.3-1.3 5.9-0.6 4.6 0.6 5.9-0.6 1.3-1.3 0-5.2-0.7-1.9-1.3-3.9 1 0 1.9 0 1 0 2 0-1.3-0.3-2.6-0.6-2.6-0.6-23.6 14.8zm-401.1 3.9q-0.7 3.8-2.6 3.8-1 0-2 0 0 1.9 0 3.9 0 3.8-2 5.1-1.9 1.3-3.9 6.5-1 2.5-2 5.1-1.3-0.6-2.6-1.3-1.3-0.6-2.6-1.3 0.6 2 1.3 3.9 1.3 3.8 0 5.8-1.3 1.9-3.3 1.9-1 0-2 0 0.3 1.3 0.7 2.6 0.6 2.5-1.3 6.4-2 3.9-3.3 5.8-1.3 1.9-3.3 1.3-1-0.3-2-0.7-0.3 4.2-0.6 8.4-0.7 8.4-4 15.4-3.2 7.1-5.2 8.4-2 1.3-3.3 6.4-1.3 5.2-3.9 5.2-1.3 0-2.7 0 0.7 1.3 1.4 2.6 1.3 2.5 0 6.4-1.4 3.8-4.6 4.5-1.7 0.3-3.3 0.6 0.6 2.3 1.3 4.5 1.3 4.5-2.6 14.8-4 10.3-7.3 12.9-3.2 2.6-6.5 11.6-3.3 9-12.5 24.4-9.2 15.4-11.8 24.5-2.6 9-5.3 10.9-2.6 1.9-2.6 5.1 0 3.3-7.2 16.8-7.2 13.5-13.1 33.4-5.9 19.9-2 25.1 3.9 5.1 3.9 7.7 0 2.6 2.7 3.9 2.6 1.3 3.3 6.4 0.6 5.1 3.2 5.8 2.7 0.6 6.6 5.8 3.9 5.1 5.9 10.3 1 2.5 2 5.1-1.3-0.6-2.7-1.3-1.3-0.6-2.6-1.3 0 1 0 2 0 1.9 3.3 5.8 3.3 3.8 5.3 3.8 0.9 0 1.9 0-0.3 1-0.6 1.9-0.4 1-0.7 2 1 0.3 2 0.6 1 0.4 1.9 0.7-0.3-0.7-0.6-1.3-0.7-1.3 1.3-2.6 1-0.6 2-1.3-0.4 2.3-0.7 4.5-0.6 4.5 4 9 4.5 4.5 7.2 5.2 1.3 0.3 2.6 0.6-1.6-1.6-3.3-3.2-3.3-3.2-3.3-5.1 0-1 0-2 0.7 0 1.3 0 1.4 0 5.3 3.9 3.9 3.9 3.9 5.8 0 0.9 0 1.9-0.6-0.3-1.3-0.6-0.6-0.4-1.3-0.7-0.3 0.7-0.6 1.3-0.7 1.3 26.2 18 26.9 16.7 43.3 23.2 16.4 6.4 17.8 5.8 0.6-0.4 1.3-0.7-1-0.6-2-1.3-2-1.3-2-3.2 0-0.9 0-1.9 1 0 2 0 2 0 4.6 5.1 2.6 5.2 3.9 5.2 0.7 0 1.4 0 0-1.6 0-3.2 0-1.7 0-3.2 0.6 0 1.3 0 1.3-0.1 8.5 3.2 7.2 3.2 18.4 2.5 11.1-0.6 21.6 2 10.5 2.5 26.3 1.3 15.7-1.3 23.6-5.8 7.9-4.5 15.8-6.5 7.9-1.9 13.1-18 5.3-16.1 3.9-28.9-1.3-12.9-3.9-21.3-2.6-8.3-9.2-18-6.5-9.6-24.9-25.1-18.4-15.4-24.3-16.7-5.9-1.3-6.6-5.1-0.6-3.9 2.6-5.8 3.3-1.9 8.6-1.9 5.2 0 9.8 1.9 4.6 1.9 6.6-1.3 2-3.2 12.5-29.6 10.5-26.4 28.8-93.3 9.2-33.4 18.4-66.8-5.2-1-10.5-2-10.5-1.9-21.6-7-11.2-5.2-21.7-6.5-10.5-1.3-25.6-10.3-15.1-9-26.9-12.8-11.8-3.9-11.2-7.1 0.3-1.6 0.7-3.2-3 0-5.9 0-5.9 0-27.6-15.5-10.8-7.7-21.7-15.4-0.3 1.9-0.6 3.9zm-5.3-1.3q0.4 0.6 0.7 1.3 0.3-0.7 0.6-1.3 0.4-0.7 0.7-1.3-0.7 0-1.3 0-0.7 0-1.3 0 0.3 0.6 0.6 1.3zm26.3 7q-0.3 1-0.7 2 1 0 2 0 1 0 2 0-0.7-1-1.3-2-0.7-0.9-1.3-1.9-0.4 1-0.7 1.9zm26.9 18.1q0.7 0.9 1.3 1.9 0-1 0-1.9 0-1 0-2-0.6 0-1.3 0-0.7 0-1.3 0 0.6 1 1.3 2zm9.9 5.7q-0.4 1.3-0.7 2.6 2.6 0.3 5.2 0.7 2.7 0.3 5.3 0.6-2.3-1.6-4.6-3.2-2.3-1.6-4.6-3.2-0.3 1.3-0.6 2.5zm-41.4 2.6q2.6 1.3 2.6 3.2 0 2-7.9 17.4-7.8 15.4-21.6 39.2-13.8 23.8-17.1 25.1-1.6 0.7-3.3 1.3-0.3-1-0.6-1.9-0.7-2 3.3-10.3 3.9-8.4 22.9-41.8 19.1-33.5 21.7-32.2zm357.7 1.3q-0.3 0.7-0.6 1.3 0.6 0 1.3 0 0.7 0 1.3 0-0.3-0.6-0.6-1.3-0.4-0.6-0.7-1.3-0.3 0.7-0.7 1.3zm-410.9 25.1q-0.3 2.2-0.6 4.5 0.6 0 1.3 0 0.6 0 1.3 0-0.3-2.3-0.7-4.5-0.3-2.3-0.6-4.5-0.3 2.2-0.7 4.5zm382.7 8.4q1.7 0.9 3.3 1.9 3.3 1.9 15.7 27 12.5 25.1 12.5 30.9 0 2.9 0 5.8-1.6-0.7-3.3-1.3-3.2-1.3-17-28.3-13.8-27.1-12.5-31.5 0.7-2.3 1.3-4.5zm-3.3 133.1q-1.9 3.2-2.6 10.3-0.6 7.1-2.6 9.6-2 2.6-1.3 7.8 0.6 5.1 1.9 5.1 0.7 0 1.4 0-0.4-1.3-0.7-2.6-0.7-2.5 0.7-3.2 0.6-0.3 1.3-0.6-0.7 0-1.3 0-0.7 0-1.4 0 0-1 0-2 0-1.9 2-2.5 2-0.7 3.3-12.9 0.6-6.1 1.3-12.2-1 1.6-2 3.2zm-402.4-1.3q2.7 0.7 2.7 3.9 0 3.2-3.3 7.1-3.3 3.8-11.2 20.5-7.8 16.8-10.5 17.4-1.3 0.3-2.6 0.6-0.3-1.9-0.6-3.8-0.7-3.9 1.9-10.3 2.7-6.4 11.8-21.2 9.2-14.8 11.8-14.2zm443.8 0.7q2.6 1.2 2.6 3.2 0 1.9-2 7.1-1.9 5.1-3.9 33.4-2 28.3-3.3 34.7-1.3 6.5-3.9 7.7-1.3 0.7-2.6 1.3-0.4-6.1-0.7-12.2-0.6-12.2 1.3-34.1 2-21.8 4-30.8 1.9-9.1 3.9-10.3 2-1.3 4.6 0zm-50.6 38.5q0.7 3.9-0.6 6.5-1.3 2.6 0 5.1 0.6 1.3 1.3 2.6-1.3-0.6-2.6-1.3-1.3-0.6-2.7-1.3 0.4 1.6 0.7 3.2 0.3 1.6 0.7 3.3-0.7 0-1.4 0-1.3 0-2.6 8.3-1.3 8.4 0 11 0.7 1.2 1.3 2.5-1 0.3-1.9 0.7-2 0.6-2 4.5 0 1.9 0 3.8 0.7 0 1.3 0 0.7 0 1.3 0 0 0.7 0 1.3 0 0.7 0 1.3-1 0-1.9 0-1 0-2 0 0.3 1.6 0.6 3.2 0.7 3.2 2.7 3.2 1.9 0 2.6-9.6 0.6-9.7 3.9-14.8 3.3-5.2 4.6-18.7 1.3-13.5-1.3-16-1.3-1.3-2.6-2.6 0.3 1.9 0.6 3.8zm-10.5 70.8q0.4 0.6 0.7 1.3 0.3-0.7 0.7-1.3 0.3-0.6 0.6-1.3-0.6 0-1.3 0-0.7 0-1.3 0 0.3 0.7 0.6 1.3zm-1.9 7.1q0 1.6 0 3.2 0.6 0 1.3 0 0.6 0 1.3 0-0.7-1.6-1.3-3.2-0.7-1.6-1.3-3.2 0 1.6 0 3.2zm-432.6 9q0.7 4.5 2 5.8 1.3 1.3 3.2 0.6 1-0.3 2-0.6-1.3-2.6-2.6-5.2-2.6-5.1-3.9-5.1-0.7 0-1.4 0 0.4 2.2 0.7 4.5zm722.7 25.1q0.3 0.6 0.7 1.3 0.6 1.2-1.3 2.5-1 0.7-2 1.3 0.6-1.3 1.3-2.6 0.7-1.2 1.3-2.5zm-3.9 6.4q-1 2.6-2 5.2-2 5.1-3.9 5.7-1 0.3-2 0.7 2-2.9 3.9-5.8 2-2.9 4-5.8zm-210.1 5.2q1.7 0 3.3 0 3.3-0.1 9.2 4.5 5.9 4.5 19 10.2 13.2 5.8 13.8 8.4 0.3 1.3 0.7 2.6-3.6-0.3-7.3-0.7-7.2-0.6-19-6.4-11.8-5.8-15.7-9-4-3.2-4-6.4 0-1.7 0-3.2zm-469.3 19.9q16.4 14.8 36.7 26.4 20.4 11.5 44.7 19.9 24.3 8.4 40 10.3 15.8 1.9 21.7 1.3 2.9-0.3 5.9-0.7-4-2.2-7.9-4.5-7.9-4.5-19-4.5-11.2 0-13.8-1.3-2.6-1.3-5.3 0-2.6 1.3-9.8-3.2-7.2-4.5-13.1-5.1-5.9-0.7-13.8-4.5-7.9-3.9-11.8-3.2-4 0.6-5.3-2.6-1.3-3.2-21-13.5-19.7-10.3-32.2-20-6.2-4.8-12.4-9.6 8.2 7.4 16.4 14.8zm8.5-12.2q1 0 2 0 1.9 0 2.6 1.9 0.3 1 0.7 1.9-1.4-0.3-2.7-0.6-2.6-0.7-2.6-1.9 0-0.7 0-1.3zm661.7 0q0.3 0.6 0.6 1.3 0.4 0.6 0.7 1.2-0.7 0-1.3 0-0.7 0-1.3 0 0.3-0.6 0.6-1.2 0.3-0.7 0.7-1.3zm-655.1 3.8q1.3 0 2.6 0 2.6 0 3.3 2 0.3 0.9 0.6 1.9-1.6-0.3-3.2-0.7-3.3-0.6-3.3-1.9 0-0.6 0-1.3zm422.7 7.7q1 0 2 0 1 0 2 0 0 0.7 0 1.3 0 0.7 0 1.3-1-0.6-2-1.3-1-0.6-2-1.3zm-407 1.3q0.4 0.7 0.7 1.3 0.3 0.7 0.7 1.3-0.7 0-1.4 0-0.6 0-1.3 0 0.3-0.6 0.7-1.3 0.3-0.6 0.6-1.3zm34.2 19.3q1.9 1 3.9 2 2 0.9 3.9 1.9-1.9-0.3-3.9-0.7-3.9-0.6-3.9-1.9 0-0.6 0-1.3zm35.4 16.1q2 1 3.9 1.9-0.6-0.9-1.3-1.9-1.3-1.9-3.9-1.9-1.3 0-2.6 0 1.9 0.9 3.9 1.9zm47.3 5.2q0 0.9 0 1.9 1.3 0 2.6 0 1.3 0 2.6 0-1.3-1-2.6-1.9-1.3-1-2.6-2 0 1 0 2zm-38.1 9.6q1 0.3 2 0.6 1 0.4 1.9 0.7-0.6 0.3-1.3 0.6-0.6 0.4-1.3 0.7-0.3-0.7-0.6-1.3-0.4-0.7-0.7-1.3zm23.6 0q0.7 0.6 1.3 1.3 0.7 0.6 1.4 1.3-1 0-2 0-1 0-2 0 0.4-0.7 0.7-1.3 0.3-0.7 0.6-1.3zm26.9 1.3q-2.9 0.6-5.9 1.3 0.4 0.6 0.7 1.3 0.7 1.2 12.5-0.7 5.9-0.9 11.8-1.9-3.3-0.3-6.6-0.7-6.5-0.6-12.5 0.7zm281-1294.8q1 0.3 2 0.6-1-0.3-2-0.6-1-0.3-2-0.7 1 0.4 2 0.7zm-9.9 8.3q0.7 0.4 1.4 0.7 0.6 0.3 1.3 0.6-0.7-0.3-1.3-0.6-0.7-0.3-1.4-0.7zm1.4 5.2q0.6 0.6 1.3 1.3 0.6 0.6 1.3 1.3-0.7-0.7-1.3-1.3-0.7-0.7-1.3-1.3zm26.2 2.6q0.3 0.6 0.7 1.3 0.3 0.6 0.6 1.2-0.3-0.6-0.6-1.2-0.4-0.7-0.7-1.3zm-428 24.4q0.4 0.7 0.7 1.3 0.3 0.6 0.7 1.3-0.4-0.7-0.7-1.3-0.3-0.6-0.7-1.3zm-28.8 36q0.3 1 0.6 2 0.3 0.9 0.7 1.9-0.4-1-0.7-1.9-0.3-1-0.6-2zm-95.9 14.2q0.3 0.6 0.7 1.3 0.3 0.6 0.6 1.3-0.3-0.7-0.6-1.3-0.4-0.7-0.7-1.3zm69.6 240.5q0.7 1.3 1.3 2.6 0.7 1.3 1.3 2.6-0.6-1.3-1.3-2.6-0.6-1.3-1.3-2.6zm0 6.5q0.3 1.3 0.7 2.5 0.3 1.3 0.6 2.6-0.3-1.3-0.6-2.6-0.4-1.2-0.7-2.5zm543.5 153.1q0.7 0.6 1.3 1.3-0.6-0.7-1.3-1.3-0.6-0.7-1.3-1.3 0.7 0.6 1.3 1.3zm-166.7 6.4q0.6 0.3 1.3 0.6 0.6 0.4 1.3 0.7-0.7-0.3-1.3-0.7-0.7-0.3-1.3-0.6zm174.6 34.7q0.6 0.7 1.3 1.3 0.6 0.7 1.3 1.3-0.7-0.6-1.3-1.3-0.7-0.6-1.3-1.3zm-481.8 277.9q0.6 0.6 1.3 1.3 0.6 0.6 1.3 1.3-0.7-0.7-1.3-1.3-0.7-0.7-1.3-1.3zm459.5 24.4q0.9 0.7 1.9 1.3 1 0.7 2 1.3-1-0.6-2-1.3-1-0.6-1.9-1.3zm-11.9 16.8q0.7 0.6 1.4 1.3-0.7-0.7-1.4-1.3-0.6-0.7-1.3-1.3 0.7 0.6 1.3 1.3zm-409.6 6.4q1 1 2 1.9 1 1 2 2-1-1-2-2-1-0.9-2-1.9zm-21 9q0.7 0.3 1.4 0.6 0.6 0.4 1.3 0.7-0.7-0.3-1.3-0.7-0.7-0.3-1.4-0.6zm36.8 2.6q0.7 0.6 1.3 1.3 0.7 0.6 1.3 1.3-0.6-0.7-1.3-1.3-0.6-0.7-1.3-1.3zm6.6 5.1q0.6 0.7 1.3 1.3 0.6 0.7 1.3 1.3-0.7-0.6-1.3-1.3-0.7-0.6-1.3-1.3zm9.2 5.2q0.6 0.6 1.3 1.3 0.6 0.6 1.3 1.2-0.7-0.6-1.3-1.2-0.7-0.7-1.3-1.3zm357 3.8q0.7 0.7 1.4 1.3-0.7-0.6-1.4-1.3-0.6-0.6-1.3-1.3 0.7 0.7 1.3 1.3zm-9.8 6.5q0.3 0.6 0.7 1.2-0.4-0.6-0.7-1.2-0.3-0.7-0.7-1.3 0.4 0.6 0.7 1.3zm-9.9 1.2q0.7 0.4 1.4 0.7 0.6 0.3 1.3 0.6-0.7-0.3-1.3-0.6-0.7-0.3-1.4-0.7zm-308.5 3.9q0.7 0.7 1.3 1.3 0.7 0.6 1.4 1.3-0.7-0.7-1.4-1.3-0.6-0.6-1.3-1.3zm39.4 19.3q0.7 0.6 1.3 1.3 0.7 0.6 1.3 1.3-0.6-0.7-1.3-1.3-0.6-0.7-1.3-1.3zm235 127.4q0.3 0.9 0.7 1.9 0.3 0.9 0.6 1.9-0.3-1-0.6-1.9-0.4-1-0.7-1.9zm-473.9 82.3q0.3 0.6 0.6 1.3 0.4 0.6 0.7 1.3-0.3-0.7-0.7-1.3-0.3-0.7-0.6-1.3zm5.2 42.4q0.7 1.3 1.3 2.6 0.7 1.3 1.4 2.6-0.7-1.3-1.4-2.6-0.6-1.3-1.3-2.6zm5.3 12.9q1 0.7 2 1.3 0.9 0.6 1.9 1.3-1-0.7-1.9-1.3-1-0.6-2-1.3zm737.8 28.3q0.6 0.7 1.3 1.3 0.7 0.6 1.3 1.3-0.6-0.7-1.3-1.3-0.7-0.6-1.3-1.3zm-5.3 1.9q0.7 0.4 1.4 0.7-0.7-0.3-1.4-0.7-0.6-0.3-1.3-0.6 0.7 0.3 1.3 0.6zm-698.4 3.9q0.7 0.3 1.3 0.6-0.6-0.3-1.3-0.6-0.6-0.3-1.3-0.6 0.7 0.3 1.3 0.6zm454.3 35.4q0.9 0.6 1.9 1.3 1 0.6 2 1.2-1-0.6-2-1.2-1-0.7-1.9-1.3zm-323 45.6q0.7 0.4 1.3 0.7-0.6-0.3-1.3-0.7-0.7-0.3-1.3-0.6 0.6 0.3 1.3 0.6zm9.2 0q0.7 0.4 1.3 0.7-0.6-0.3-1.3-0.7-0.7-0.3-1.3-0.6 0.6 0.3 1.3 0.6zm17.1 2q0.9 0.3 1.9 0.6 1 0.3 2 0.7-1-0.4-2-0.7-1-0.3-1.9-0.6z"/></svg>