<svg version="1.2" xmlns="http://www.w3.org/2000/svg" viewBox="0 0 1071 707" width="1071" height="707"><style>.a{fill:#fc0}</style><path class="a" d="m328.5 6.6q-3.6 6.6-8 18-4.5 11.3-26.2 71.8-21.7 60.5-28.8 52.7-7.2-7.8-11.1-7.8-3.8 0-6.2 2.4-2.4 2.4-7.4 0-5.1-2.4-8.4-2.4-3.2 0-17.5 16.2-14.3 16.1-24.4 29.9-10.1 13.8-11.9 13.8-1.8 0-4.5-1.8-2.6-1.8-2.6-3.6 0-1.8 7.4-14.4 7.4-12.6 10.7-19.1 3.3-6.6 3.6-9.6 0.3-3 0-5.4-0.3-2.4-3.9-8.4-3.6-6-8-9-4.5-3-8.9-3-4.5 0-20.6 14.4-16 14.4-30.6 31.1-14.6 16.8-28 34.8-13.4 17.9-25.3 36.5-11.9 18.5-29.7 52.7-17.8 34.1-27.7 57.4-9.8 23.4-10.1 27.6-0.3 4.1 2.4 10.1 2.7 6 6.8 9.6 4.2 3.6 9 4.2 4.7 0.6 6.8-1.8 2.1-2.4 8-18.5 6-16.2 20.3-45.6 14.2-29.3 29.7-55 15.5-25.8 19-30.5 1.8-2.5 3.6-4.8 0.2 0.6 0.3 1.1 0.3 1.3-11.3 27-11.6 25.7-21.1 49.7-9.5 23.9-22.6 60.5-13.1 36.5-19.6 57.4-6.6 21-7.8 26.4-1.2 5.3-0.9 8.9 0.3 3.6 3 8.4 2.7 4.8 8 9 5.4 4.2 9.6 4.2 4.1 0 6.8-3.6 2.7-3.6 15.2-32.3 12.5-28.8 26.4-56.9 14-28.1 15.2-29.9 1.2-1.8 4.2-2.4 2.9-0.6 7.7-9.6 2.4-4.5 4.8-9-0.6 3-1.2 6-1.2 6-1.2 10.2 0 4.2 0.9 6.6 0.9 2.3 0.6 5.3-0.3 3-12.8 36-12.5 32.9-16.7 46.7-4.1 13.7-3.5 19.1 0.6 5.4 2.9 9.6 2.4 4.2 6.9 7.8 4.4 3.6 9.2 3.6 4.8 0 8-5.4 3.3-5.4 6.9-14.4 3.5-9 19.6-41.3 16.1-32.3 31.2-59.9 15.2-27.5 21.2-36.5 2.9-4.5 5.9-9-3.9 12-7.7 24-7.8 23.9-22.3 58.7-14.6 34.7-20.9 52.6-6.2 18-6.5 21-0.3 3 1.2 9.6 1.5 6.6 3.8 11.3 2.4 4.8 6.9 9.6 4.5 4.8 7.4 4.8 3 0 3.9-1.2 0.9-1.2 14.3-34.7 13.4-33.5 15.7-41.3 2.4-7.8 10.4-19.2 4.1-5.6 8.1-11.4 0.4 1.9 0.9 3.7 0.9 3.5 3.8 8.9 3 5.4 6.9 9 3.8 3.6 8.3 4.2 4.5 0.6 6-1.2 1.4-1.8 7.1-16.8 5.6-14.9 7.7-19.1 2.1-4.2 3-4.2 0.9 0 5.1 4.2 2 2.1 4.1 4.2-0.7 3-1.5 6-1.4 5.9-1.4 9.5 0 3.6 2 9 2.1 5.4 6.9 10.8 4.7 5.4 9.8 6.6 5 1.2 11.3-10.2 6.2-11.4 17.2-36.5 11.1-25.2 13.1-23.4 2.1 1.8 1.8 4.2-0.3 2.4-12.8 40.7-12.5 38.3-11.9 43.7 0.6 5.4 2.7 9.6 2.1 4.2 8.6 9.6 6.6 5.4 10.4 4.2 3.9-1.2 15.5-27.6 5.8-13.1 11.6-26.3 0.2 0.9 0.3 1.8 0.3 1.8-0.6 6-0.9 4.2 2.7 11.4 3.6 7.1 9.2 10.1 5.7 3 10.7 9 5.1 6 9.2 7.2 4.2 1.2 6.3 0 2.1-1.2 16.4-29.9 7.1-14.4 14.2-28.8-2.1 6.6-4.1 13.2-4.2 13.2-4.5 18-0.3 4.8 0.9 8.3 1.2 3.6 3.9 7.2 2.6 3.6 9.5 7.2 6.8 3.6 10.1 1.2 3.3-2.4 15.5-23.9 6.1-10.8 12.2-21.6 1 3.6 2 7.2 2.1 7.2 4.8 12.6 2.7 5.4 6.2 9 3.6 3.5 6.3 2.4 2.7-1.3 12.5-20.4 9.8-19.2 13.7-16.8 3.8 2.4 5.9 9 2.1 6.6 6 13.8 3.8 7.2 8 9 4.2 1.8 14.9-15 10.7-16.8 11.6-16.2 0.9 0.6 0.9 3 0 2.4 2.9 7.8 3 5.4 6.3 8.4 3.3 3 7.7 4.2 4.5 1.2 8.6-2.4 4.2-3.6 11.1-15 6.8-11.4 11.6-5.4 4.7 6 7.1 6 2.4 0 10.1-12.6 7.7-12.5 8.9-12.5 1.2 0 6 3 2.4 1.5 4.7 3-4.9 9.8-9.8 19.7-9.8 19.8-10.1 24.6-0.3 4.7 0.9 10.1 1.2 5.4 4.2 12.6 2.9 7.2 7.7 12 4.8 4.8 5.9 4.2 1.2-0.6 22.7-43.7 21.4-43.1 22.6-41.3 0.6 0.8 1.2 1.8-9.6 19.4-19.1 38.9-19 38.9-18.7 43.1 0.3 4.2 2.9 9 2.7 4.7 6.3 7.7 3.6 3 8.3 4.2 4.8 1.2 7.2-1.2 2.3-2.4 21.4-40.7 19-38.3 20.2-38.9 1.2-0.6 2.4 4.2 1.2 4.8 5.3 9.6 4.2 4.7 8.1 6.6 3.8 1.8 7.4 1.2 3.6-0.6 31.2-39 13.9-19.1 27.7-38.3 0.2 0.6 0.3 1.2 0.3 1.2-12.8 25.8-13.1 24.5-13.4 29.9-0.3 5.4 1.2 9 1.5 3.6 6 8.4 4.4 4.7 11 6 6.5 1.1 27.9-23.4 10.7-12.3 21.4-24.6-7.5 13.2-15.1 26.4-15.2 26.3-14.9 29.9 0.3 3.6 3.6 9 3.2 5.4 7.1 8.4 3.9 3 7.2 3.6 3.2 0.6 6.2-1.2 3-1.8 32.1-44.9 29.2-43.1 50-70.7 20.8-27.5 28.3-35.9 3.7-4.2 7.4-8.4-9.8 18.6-19.6 37.2-19.7 37.1-43.2 77.2-23.5 40.1-22.9 46.1 0.6 6 3 9.6 2.4 3.6 6.8 7.1 4.5 3.6 9.3 3.6 4.7 0 12.2-10.1 7.4-10.2 9.2-6 1.8 4.2 5 7.8 3.3 3.5 9.9 5.3 6.5 1.8 20.5-16.1 14-18 35.1-47.9 21.1-30 45.2-70.6 24.1-40.8 36.9-66.5 12.8-25.7 12.2-32.3-0.6-6.6-2.7-10.2-2.1-3.6-6.2-7.2-4.2-3.6-9.6-4.2-5.3-0.6-9.2 2.4-3.9 3-19 21-7.6 9-15.2 17.9 4.5-8.9 8.9-17.9 9-18 14.3-31.2 5.4-13.1 5.1-17.3-0.3-4.2-2.7-9-2.4-4.8-5.4-7.8-2.9-3-8.3-4.8-5.4-1.8-11.3 2.4-5.9 4.2-23.5 24.6-17.5 20.3-19.9 14.3-2.4-6-4.8-8.9-2.4-3-5.9-5.4-3.6-2.4-7.8-2.4-4.1 0-13.7 10.1-9.5 10.2-29.4 35.4-19.9 25.1-21.4 25.7-0.8 0.3-1.5 0.6 5.5-11.4 11-22.7 11-22.8 11-28.8 0-6-3-11.3-2.9-5.4-7.7-9-4.8-3.6-9.8-3.6-5.1 0-11.9 6.6-6.9 6.6-14.9 16.7-8 10.2-9.2 10.2-0.6 0-1.2 0 3.9-6.9 7.7-13.8 7.8-13.7 11.6-23.3 3.9-9.6 3.3-13.8-0.6-4.2-2.1-7.2-1.5-3-4.7-6.6-3.3-3.5-6.6-4.7-3.3-1.2-3.3-2.4 0-1.2 15.5-25.8 15.5-24.5 22.6-33.5 7.2-9 8.3-13.2 1.2-4.2-0.8-9.5-2.1-5.4-9-10.8-6.8-5.4-11.3-4.2-4.4 1.2-34.8 40.7-30.3 39.5-48.8 65.8-9.2 13.2-18.4 26.4 9.7-20.4 19.3-40.7 19.4-40.7 19.7-47.9 0.3-7.2-0.9-12-1.2-4.8-4.5-12-3.3-7.1-6.2-10.7-3-3.6-5.7-3.6-2.7 0-16.3 16.7-13.7 16.8-26.2 34.2-6.3 8.6-12.5 17.3 5.9-13.8 11.9-27.5 11.9-27.6 11.6-32.9-0.3-5.4-2.7-13.2-2.4-7.8-6.2-14.4-3.9-6.6-7.8-7.8-3.8-1.2-24.1 25.8-20.2 26.9-44.3 62.8-24.1 36-24.7 35.4-0.3-0.3-0.6-0.7 3.4-6.5 6.9-13.1 6.8-13.2 19.6-34.7 12.8-21.6 13.1-24.6 0.3-3-0.9-9.6-1.2-6.5-5.4-15.5-4.1-9-8.3-12-4.2-3-17.5 15.6-13.4 18.5-14.3 18.5-0.9 0-2.1-5.4-1.2-5.3-4.2-11.3-2.9-6-6.2-9.6-3.3-3.6-5.4-3.6-2 0-14.2 18.6-12.2 18.5-30.1 49.6-17.8 31.2-29.7 53.9-11.9 22.8-23.5 47.9-11.6 25.1-23.5 41.9-6 8.4-11.9 16.8 4.1-10.5 8.3-21 8.3-20.9 30.9-70 22.6-49.1 36-74.8 13.4-25.8 25-44.9 11.6-19.2 11.6-23.4 0-4.2-1.8-8.4-1.8-4.2-7.7-9.6-6-5.3-10.4-5.3-4.5 0-10.7 6.5-6.3 6.6-10.4 4.8-4.2-1.8-7.5-1.2-3.2 0.6-16.3 27-13.1 26.3-27.1 45.5-7 9.5-14 19.1 10.4-30.5 20.8-61 20.9-61.1 20-66.5-0.9-5.4-3.6-10.2-2.7-4.7-7.4-8.9-4.8-4.2-9-4.2-4.1 0-10.7 11.3-6.5 11.4-48.2 95.8-20.8 42.2-41.6 84.4 9.5-27.5 19-55 19.1-55.1 19.4-59.3 0.3-4.2-0.3-7.2-0.6-3-6.3-10.8-5.6-7.7-11.6-8.9-5.9-1.2-23.8 33.5-8.9 17.3-17.8 34.7 3.3-9.3 6.5-18.6 6.6-18.5 5.7-24.5-0.9-6-3.3-10.2-2.4-4.2-7.1-8.4-4.8-4.1-7.8-4.7-2.9-0.6-5.6 2.3-2.7 3-4.8-1.7-2.1-4.8-7.4-10.2-5.4-5.4-8.9-6-3.6-0.6-5.4 0.6-1.8 1.2-4.2 6.6-2.3 5.4-3.5 5.4-1.2 0-3.9-4.8-2.7-4.8-5.3-6.6-1.4-0.9-2.7-1.8 1.5-4.2 3-8.4 2.9-8.4 5-11.4 2.1-3 1.2-10.1-0.9-7.2-5.9-16.2-5.1-9-7.2-10.8-2.1-1.8-5.3-1.8-3.3 0-6.9 6.6z"/><path  d="m211.3 502.8q-0.9 0-1.8-0.1c-5.1-0.8-9.1-4.7-10-9.8-9.7-56.5-32-100.1-64.5-126.1-24.4-19.5-46.3-22.5-46.5-22.6-5-0.6-9-4.1-10.2-9-1.2-4.8 0.8-9.9 4.9-12.7 48.1-32.7 74.7-70.8 78.9-113 3.2-31.4-7.8-53.9-7.9-54.1-2.6-5.3-1-11.7 3.8-15.1 4.8-3.4 11.4-2.8 15.4 1.4l52.2 54c-1.5-54.8 24.6-76.5 26-77.6l14.9 18.7 0.1-0.1c-1.1 0.9-27.1 24.1-13.1 90.4 1.1 5.2-1.4 10.5-6.1 13-4.7 2.5-10.5 1.6-14.2-2.2l-46.9-48.5c0.4 6.5 0.4 13.5-0.3 21-2.7 31-17.6 75.1-69.9 117.4 9.4 4 20.7 10 32.4 19.2 22.6 17.6 50.9 50.3 67.2 109 15.3-29.2 34.8-64.3 44-71.4 3.3-2.6 7.8-3.2 11.7-1.6 3.9 1.5 6.7 5 7.4 9.2 2.2 13.7 8.7 52.1 12.8 64.4l-22.7 7.5c-2.7-8.2-6.1-24.6-8.7-39.3-11 18.7-25.7 46.4-38.2 71.4-2.1 4.1-6.2 6.6-10.7 6.6z"/><path fill-rule="evenodd" d="m342.7 474.9l-23.5-3.9c-0.2 1.1-0.2 1.9-0.2 2-0.9-13.2-40-192.1-66-309.1-0.8-3.6 0.1-7.4 2.4-10.2 2.3-2.9 5.9-4.4 9.5-4.4 1.7 0.1 41.7 1.1 86.2 7.6 63 9.2 100.8 24 115.6 45.3 3.4 4.9 2.7 11.5-1.6 15.6l-146 135.9c24.7 114.7 24.1 118 23.6 121.2zm-63.1-301.1c5.8 26 18.2 81.9 30.3 137.8q1.7 7.7 3.3 14.9l126.7-117.9c-27.9-21.2-105.3-32-160.3-34.8z"/><path  d="m454.7 552.5c-4.1 0-8-2-10.2-5.6-0.7-1.2-71.6-116.5-119.4-169.4-17.6-19.4-37-27.9-57.7-25.2-15.3 2.1-25.7 9.5-25.8 9.6l-14.2-19.2c0.6-0.5 15.3-11.2 36.9-14 19.9-2.7 49.7 0.9 78.5 32.8 20.1 22.2 43.6 54.2 64.5 84.7l-36.8-100.4c-1.6-4.3-0.5-9.2 2.7-12.5l59.7-61c3.5-3.6 9-4.6 13.6-2.4 4.7 2.2 7.3 7.1 6.8 12.1l-5.4 45.1-23.7-2.7 1.3-10.4-30 30.6 70.4 191.9c2.1 5.8-0.5 12.2-6 14.9-1.7 0.8-3.5 1.1-5.2 1.1z"/><path  d="m607.2 559.1c-17.4-169.5-68.6-280-108.4-343-9.9-15.7-19.7-29.4-28.9-41 40.6 112.8 51.8 280.3 52.4 289.1 0.3 5.8-3.5 11.1-9.2 12.4-5.6 1.4-11.4-1.5-13.7-6.9l-41.1-95.5 21.9-9.4 10.7 24.9c-10.4-85.2-33.1-218.3-77.3-272.6-3.8-4.6-3.6-11.3 0.5-15.7 4.1-4.3 10.7-5 15.6-1.6 1.7 1.2 42.9 30.7 88.4 102.2 26.5 41.6 49.1 89 67.1 140.9 22.4 64.7 37.8 136.6 45.8 213.7z"/><path  d="m433.4 352.3v-23.9q-0.3 0-0.8 0c1.2-0.1 6.4-1.1 11.5-2.1 54.2-10.6 121.1-21.7 157.7-13.5l-5.2 23.3c-36.4-8.1-117.4 7.7-147.9 13.6-11.3 2.2-13.3 2.6-15.3 2.6z"/><path  d="m806.1 431.9c-2.4 0-4.9-0.8-7-2.3-33.7-24.6-71.5-35.9-112.3-33.6-30.9 1.7-52 10.9-52.2 10.9-3.7 1.7-7.9 1.4-11.2-0.8-3.4-2.1-5.5-5.7-5.6-9.7-1.7-57.9 18.5-118.5 58.4-175.3 13.5-19.2 27-34.9 37.9-46.5q-6.9 0.2-13.7 0.2c-76.1 0-137.1-13.1-168.9-21.6l35.1 91.3-22.3 8.6-43.8-114.1c-1.6-4.3-0.6-9.2 2.6-12.6 3.3-3.3 8.2-4.4 12.6-2.9 1 0.4 100.2 34.9 228.6 25.9 5.1-0.4 10 2.6 11.9 7.4 1.9 4.8 0.5 10.3-3.4 13.7-0.3 0.2-29.4 24.7-57.5 64.8-23.4 33.5-50.6 84.6-53.5 144 10.4-2.9 25.1-6.1 42.6-7.1 24.1-1.5 57.4 1 92.8 17.1-12-26.3-24.3-59.5-19.8-78.3l23.2 5.6c-3.8 16 18.7 66.7 35.9 97.5 2.8 4.9 1.7 11-2.4 14.7-2.3 2-5.1 3.1-8 3.1z"/><path  d="m853.9 330.8c-2.7-0.7-66.2-15.6-74.1-61.4-5.5-31.5 3.1-125.3 7.2-165.4-12.7 4.1-30.9 9.9-49.3 15.6-69.3 21.8-73.3 21.8-76.1 21.8v-23.9c-0.3 0-0.6 0-1 0.1 8-1.2 76.3-22.5 136.6-41.9 3.8-1.3 8-0.5 11.2 2.1 3.1 2.5 4.7 6.5 4.3 10.5-4.4 39.1-14.6 146.9-9.4 177.1 4.3 24.9 41.8 38.8 55.9 42.1z"/><path fill-rule="evenodd" d="m326 703.7c-1.4 0-2.9-0.2-4.3-0.8-4.2-1.6-7.1-5.4-7.6-9.9-0.4-4.6-8.9-115 220-198.1 52.7-19.1 105.1-25.2 155.8-17.9 18.7 2.6 37.2 7.1 55.3 13.4 24.9-4.2 50.7-7.4 77.3-9.4l1.8 23.8q-18.8 1.4-36.9 3.6 9.9 5.1 19.6 10.9c29.3 17.6 52.5 37.3 69.1 53.5-8.2-43.5-20.6-114.4-28.8-187.4-10-89.4 15.9-192.5 29.8-247.9 3.5-14.3 7.3-29.1 7.3-32.6q0 0.2 0 0.3l23.8-1.9c0.5 5.8-1.7 14.8-8 40-13.5 53.9-38.7 154.3-29.2 239.5 13.1 116 36.7 227.1 37 228.3 1.2 5.5-1.7 11.1-6.9 13.4-5.1 2.3-11.2 0.6-14.5-4-0.3-0.4-33.6-46-92.7-81.2q-24.9-14.9-50.6-24.4c-116.1 20.3-211.4 61.9-275.3 96.4-84.7 45.7-133.6 89-134 89.4-2.3 2-5.1 3-8 3zm322.3-206c-34.6 0-70 6.6-106 19.6-110.2 40.1-160 85.5-182.4 116.6-7.4 10.4-12.4 19.8-15.6 27.9 23.2-17.5 61.3-43.9 112.3-71.5 56.6-30.6 137.2-66.5 234.7-89.2q-21.3-3.4-43-3.4z"/><path  d="m84 286c-1.5 0-3-0.8-3.9-2.1-1.4-2.1-0.9-5 1.3-6.4 0.6-0.5 58.4-40.2 49.7-93.6-0.4-2.5 1.3-4.9 3.8-5.3 2.6-0.4 5 1.3 5.4 3.8 9.6 59.3-51.2 101-53.7 102.8-0.8 0.5-1.7 0.8-2.6 0.8z"/><path  d="m97.2 236.9c-1.2 0-2.4-0.5-3.3-1.4-1.8-1.8-1.8-4.7 0-6.5 0.4-0.4 23.4-23.8 18.7-44.8-0.6-2.5 1-5 3.5-5.6 2.5-0.5 5 1.1 5.5 3.6 5.8 26-20 52.2-21.1 53.3-0.9 0.9-2.1 1.4-3.3 1.4z"/><path  d="m325.3 303.2c-2.5 0-4.6-2.1-4.6-4.6 0-25.7-18.3-104.3-18.4-105.1-0.6-2.5 0.9-5 3.4-5.6 2.5-0.5 5 1 5.6 3.5 0.8 3.3 18.7 80.4 18.7 107.2 0 2.5-2.1 4.6-4.7 4.6z"/><path  d="m672.8 197.1c-41.2 0-104.5-15.4-107.2-16.1-2.5-0.6-4-3.1-3.4-5.6 0.6-2.5 3.1-4 5.6-3.4 0.7 0.2 65 15.8 105 15.8 2.6 0 4.7 2.1 4.7 4.7 0 2.5-2.1 4.6-4.7 4.6z"/><path  d="m667.5 345.6c-2.5 0-4.6-2-4.6-4.6 0-40.9 39.1-91 40.8-93.1 1.6-2 4.5-2.3 6.5-0.7 2 1.6 2.3 4.5 0.8 6.5-0.4 0.5-38.8 49.6-38.8 87.3 0 2.6-2.1 4.6-4.7 4.6z"/><path  d="m901 354.9c-2.3 0-4.3-1.6-4.6-3.9-13.3-90.1 25-235.8 26.6-242 0.7-2.4 3.2-3.9 5.7-3.3 2.5 0.7 3.9 3.2 3.3 5.7-0.4 1.5-39.4 150-26.4 238.2 0.3 2.5-1.4 4.9-4 5.3q-0.3 0-0.6 0z"/><path  d="m923.5 251.5q-0.1 0-0.2 0c-2.5-0.1-4.5-2.3-4.4-4.8 1.3-34.6 26.9-133.5 28-137.6 0.6-2.5 3.1-4 5.6-3.4 2.5 0.7 4 3.2 3.3 5.7-0.2 1-26.4 102-27.7 135.6-0.1 2.5-2.1 4.5-4.6 4.5z"/><path  d="m397 706.4c-1.3 0-2.6-0.5-3.5-1.6-1.7-1.9-1.5-4.9 0.4-6.6 0.4-0.3 38.5-33.1 97-65.8 54-30.2 137-66.5 225.6-67.9 2.6 0 4.7 2 4.7 4.6 0.1 2.5-2 4.6-4.5 4.7-86.8 1.3-168.2 37-221.3 66.7-57.6 32.2-95 64.4-95.4 64.8-0.9 0.7-2 1.1-3 1.1z"/></svg>