<svg width="1274" height="1080" viewBox="0 0 1274 1080" fill="none" xmlns="http://www.w3.org/2000/svg">
<rect x="171" y="121" width="840" height="113" rx="56.5" fill="#FFCDF4" stroke="black" stroke-width="8"/>
<path d="M1171 547L1094.5 723L1076 736L1137.5 795.5L1186 566V552L1171 547Z" fill="#88AAEE" stroke="black" stroke-width="8"/>
<path d="M35.9051 842.076L26.4411 813.518L91.5587 718.281H1090.85L1150.58 806.112L1144.46 855.301L35.9051 842.076Z" fill="white" stroke="black" stroke-width="8"/>
<path d="M121 292H1056C1076.43 292 1093 308.565 1093 329V721H84V329C84 308.565 100.565 292 121 292Z" fill="#FFCDF4" stroke="black" stroke-width="8"/>
<path d="M335 22H844C904.199 22 953 70.801 953 131V292H226V131C226 70.801 274.801 22 335 22Z" fill="#88AAEE" stroke="black" stroke-width="8"/>
<path d="M360 77H819C861.526 77 896 111.474 896 154V292H283V154C283 111.474 317.474 77 360 77Z" fill="white" stroke="black" stroke-width="8"/>
<rect x="173" y="337" width="831" height="339" rx="17" fill="white" stroke="black" stroke-width="8"/>
<rect x="21" y="797" width="1140" height="261" rx="31" fill="#88AAEE" stroke="black" stroke-width="8"/>
<circle cx="1194.5" cy="514.5" r="54.5" fill="#FFCDF4" stroke="black" stroke-width="8"/>
<rect x="218.35" y="372.35" width="740.3" height="268.3" rx="20.65" fill="white" stroke="#1E1E1E" stroke-width="0.7"/>
<rect x="79" y="849" width="1023" height="158" rx="35" fill="white" stroke="black" stroke-width="8"/>
</svg>
