<svg xmlns="http://www.w3.org/2000/svg" xmlns:xlink="http://www.w3.org/1999/xlink" width="500" zoomAndPan="magnify" viewBox="0 0 375 374.999991" height="500" preserveAspectRatio="xMidYMid meet" version="1.0"><defs><clipPath id="e63a764abd"><path d="M 130 314 L 246 314 L 246 362 L 130 362 Z M 130 314 " clip-rule="nonzero"/></clipPath><clipPath id="fbb7091722"><path d="M -54.386719 206.980469 L 206.699219 -79.699219 L 456.777344 148.058594 L 195.691406 434.734375 Z M -54.386719 206.980469 " clip-rule="nonzero"/></clipPath><clipPath id="096b54c5b2"><path d="M -412.796875 46.992188 L 145.230469 -565.730469 L 700.285156 -60.226562 L 142.257812 552.5 Z M -412.796875 46.992188 " clip-rule="nonzero"/></clipPath><clipPath id="e58f159926"><path d="M 126 309 L 251 309 L 251 366 L 126 366 Z M 126 309 " clip-rule="nonzero"/></clipPath><clipPath id="ba40e025c6"><path d="M -54.386719 206.980469 L 206.699219 -79.699219 L 456.777344 148.058594 L 195.691406 434.734375 Z M -54.386719 206.980469 " clip-rule="nonzero"/></clipPath><clipPath id="2b37d97c7d"><path d="M -412.796875 46.992188 L 145.230469 -565.730469 L 700.285156 -60.226562 L 142.257812 552.5 Z M -412.796875 46.992188 " clip-rule="nonzero"/></clipPath><clipPath id="fd2e857c72"><path d="M 29 15 L 337 15 L 337 335 L 29 335 Z M 29 15 " clip-rule="nonzero"/></clipPath><clipPath id="67fb0d37fd"><path d="M -54.386719 206.980469 L 206.699219 -79.699219 L 456.777344 148.058594 L 195.691406 434.734375 Z M -54.386719 206.980469 " clip-rule="nonzero"/></clipPath><clipPath id="47e9361deb"><path d="M -412.796875 46.992188 L 145.230469 -565.730469 L 700.285156 -60.226562 L 142.257812 552.5 Z M -412.796875 46.992188 " clip-rule="nonzero"/></clipPath><clipPath id="5eda8353bc"><path d="M 24 11 L 342 11 L 342 339 L 24 339 Z M 24 11 " clip-rule="nonzero"/></clipPath><clipPath id="6c373ea671"><path d="M -54.386719 206.980469 L 206.699219 -79.699219 L 456.777344 148.058594 L 195.691406 434.734375 Z M -54.386719 206.980469 " clip-rule="nonzero"/></clipPath><clipPath id="c092585392"><path d="M -412.796875 46.992188 L 145.230469 -565.730469 L 700.285156 -60.226562 L 142.257812 552.5 Z M -412.796875 46.992188 " clip-rule="nonzero"/></clipPath><clipPath id="4fe70c77ab"><path d="M 184 125 L 204 125 L 204 181 L 184 181 Z M 184 125 " clip-rule="nonzero"/></clipPath><clipPath id="ca2a08bbf1"><path d="M -54.386719 206.980469 L 206.699219 -79.699219 L 456.777344 148.058594 L 195.691406 434.734375 Z M -54.386719 206.980469 " clip-rule="nonzero"/></clipPath><clipPath id="d8f26bf719"><path d="M -412.796875 46.992188 L 145.230469 -565.730469 L 700.285156 -60.226562 L 142.257812 552.5 Z M -412.796875 46.992188 " clip-rule="nonzero"/></clipPath><clipPath id="de0ed2f6e0"><path d="M 252 134 L 267 134 L 267 188 L 252 188 Z M 252 134 " clip-rule="nonzero"/></clipPath><clipPath id="e4760a09d0"><path d="M -54.386719 206.980469 L 206.699219 -79.699219 L 456.777344 148.058594 L 195.691406 434.734375 Z M -54.386719 206.980469 " clip-rule="nonzero"/></clipPath><clipPath id="940f914eee"><path d="M -412.796875 46.992188 L 145.230469 -565.730469 L 700.285156 -60.226562 L 142.257812 552.5 Z M -412.796875 46.992188 " clip-rule="nonzero"/></clipPath><clipPath id="eaf10f1eeb"><path d="M 216 264 L 241 264 L 241 314 L 216 314 Z M 216 264 " clip-rule="nonzero"/></clipPath><clipPath id="cdfabf79d0"><path d="M -54.386719 206.980469 L 206.699219 -79.699219 L 456.777344 148.058594 L 195.691406 434.734375 Z M -54.386719 206.980469 " clip-rule="nonzero"/></clipPath><clipPath id="db3cf7703c"><path d="M -412.796875 46.992188 L 145.230469 -565.730469 L 700.285156 -60.226562 L 142.257812 552.5 Z M -412.796875 46.992188 " clip-rule="nonzero"/></clipPath><clipPath id="884a6ffc7b"><path d="M 194 246 L 212 246 L 212 315 L 194 315 Z M 194 246 " clip-rule="nonzero"/></clipPath><clipPath id="b4f58a83f7"><path d="M -54.386719 206.980469 L 206.699219 -79.699219 L 456.777344 148.058594 L 195.691406 434.734375 Z M -54.386719 206.980469 " clip-rule="nonzero"/></clipPath><clipPath id="080585404c"><path d="M -412.796875 46.992188 L 145.230469 -565.730469 L 700.285156 -60.226562 L 142.257812 552.5 Z M -412.796875 46.992188 " clip-rule="nonzero"/></clipPath><clipPath id="e374485cf1"><path d="M 168 264 L 179 264 L 179 314 L 168 314 Z M 168 264 " clip-rule="nonzero"/></clipPath><clipPath id="8c944e8d1c"><path d="M -54.386719 206.980469 L 206.699219 -79.699219 L 456.777344 148.058594 L 195.691406 434.734375 Z M -54.386719 206.980469 " clip-rule="nonzero"/></clipPath><clipPath id="8a3a9d81dd"><path d="M -412.796875 46.992188 L 145.230469 -565.730469 L 700.285156 -60.226562 L 142.257812 552.5 Z M -412.796875 46.992188 " clip-rule="nonzero"/></clipPath></defs><g clip-path="url(#e63a764abd)"><g clip-path="url(#fbb7091722)"><g clip-path="url(#096b54c5b2)"><path fill="#dfe5f2" d="M 243.101562 328 C 250.964844 342.769531 240.628906 351.34375 227.019531 357.332031 C 207.769531 365.804688 161.757812 358.492188 146.46875 347.992188 C 132.433594 338.359375 126.726562 325.007812 134.296875 314.148438 " fill-opacity="1" fill-rule="nonzero"/></g></g></g><g clip-path="url(#e58f159926)"><g clip-path="url(#ba40e025c6)"><g clip-path="url(#2b37d97c7d)"><path stroke-linecap="round" transform="matrix(2.329205, 0.133978, -0.133978, 2.329205, 177.513859, -2166.685178)" fill="none" stroke-linejoin="round" d="M 89.470129 1065.899243 C 93.198484 1072.025803 88.986625 1075.94925 83.310363 1078.846707 C 75.281541 1082.946104 55.412439 1080.949507 48.611571 1076.832722 C 42.368613 1073.056157 39.597852 1067.483294 42.570011 1062.650067 " stroke="#000000" stroke-width="4.061" stroke-opacity="1" stroke-miterlimit="4"/></g></g></g><g clip-path="url(#fd2e857c72)"><g clip-path="url(#67fb0d37fd)"><g clip-path="url(#47e9361deb)"><path fill="#dfe5f2" d="M 31.710938 221.664062 C 21.207031 239.796875 52.835938 253.238281 87.863281 261.8125 C 101.464844 265.144531 125.835938 312.957031 157.339844 325.859375 C 177.832031 334.257812 225.128906 338.75 242.53125 327.417969 C 272.328125 308.015625 288.347656 281.710938 296.808594 248.542969 C 299.808594 236.785156 301.179688 223.238281 301.144531 212.097656 C 301.023438 175.515625 338.5 88.832031 336.546875 79.347656 C 331.125 52.992188 300.195312 66.472656 292.96875 82.800781 C 289.46875 90.710938 256.96875 145.714844 257.421875 134.851562 C 258.53125 108.171875 263.078125 76.1875 269.097656 46.230469 C 278.105469 1.40625 214.347656 9.167969 206.34375 51.226562 C 202.59375 70.929688 197.144531 86.941406 189.808594 131.109375 C 183.859375 106.753906 173.523438 71.667969 170.761719 47.660156 C 166.199219 8.078125 108.640625 28.339844 115.234375 76.617188 C 119.722656 109.5 134.292969 167.855469 128.246094 224.1875 C 107.347656 204.621094 63.394531 166.972656 31.710938 221.660156 Z M 31.710938 221.664062 " fill-opacity="1" fill-rule="nonzero"/></g></g></g><g clip-path="url(#5eda8353bc)"><g clip-path="url(#6c373ea671)"><g clip-path="url(#c092585392)"><path stroke-linecap="round" transform="matrix(2.329205, 0.133978, -0.133978, 2.329205, 177.513859, -2166.685178)" fill="none" stroke-linejoin="round" d="M -3.604477 1025.59965 C -7.652936 1033.617498 6.212399 1038.590766 21.412176 1041.397642 C 27.314506 1042.48868 38.920123 1062.348504 52.7187 1067.094175 C 61.694337 1070.1836 82.043957 1070.94171 89.211758 1065.664221 C 101.484723 1056.628244 107.69226 1044.977764 110.496428 1030.57643 C 111.490767 1025.471242 111.744036 1019.640581 111.454777 1014.874204 C 110.502529 999.223178 124.405689 961.207506 123.336469 957.197073 C 120.367653 946.052622 107.464179 952.582422 104.773724 959.747349 C 103.470721 963.218373 90.917344 987.555334 90.843854 982.895618 C 90.661879 971.451669 91.820293 957.653153 93.65878 944.68592 C 96.410056 925.283239 69.318168 930.17393 66.928405 948.368449 C 65.808696 956.892017 63.871005 963.877801 61.818996 982.958512 C 58.67375 972.682871 53.38724 957.923475 51.614531 947.718145 C 48.687896 930.892695 24.556423 940.979738 28.566287 961.476047 C 31.296267 975.436627 38.967486 1000.049183 37.766493 1024.303351 C 28.342127 1016.444983 8.60724 1001.416508 -3.604573 1025.597978 Z M -3.604477 1025.59965 " stroke="#000000" stroke-width="4.061" stroke-opacity="1" stroke-miterlimit="4"/></g></g></g><g clip-path="url(#4fe70c77ab)"><g clip-path="url(#ca2a08bbf1)"><g clip-path="url(#d8f26bf719)"><path fill="#000000" d="M 184.640625 129.835938 C 190.015625 159.730469 199.617188 173.847656 203.082031 180.953125 C 199.199219 162.296875 197.71875 157.667969 195.082031 137.457031 C 194.632812 134.03125 194.679688 129.960938 195.523438 125.039062 Z M 184.640625 129.835938 " fill-opacity="1" fill-rule="nonzero"/></g></g></g><g clip-path="url(#de0ed2f6e0)"><g clip-path="url(#e4760a09d0)"><g clip-path="url(#940f914eee)"><path fill="#000000" d="M 252.6875 134.753906 C 251.957031 152.546875 255.351562 174.183594 261.246094 187.90625 C 261.5 178.183594 261.789062 161.476562 261.882812 146.691406 C 261.910156 142.683594 262.914062 139.109375 266.457031 134.636719 C 261.898438 135.640625 257.296875 135.011719 252.6875 134.753906 Z M 252.6875 134.753906 " fill-opacity="1" fill-rule="nonzero"/></g></g></g><g clip-path="url(#eaf10f1eeb)"><g clip-path="url(#cdfabf79d0)"><g clip-path="url(#db3cf7703c)"><path stroke-linecap="round" transform="matrix(2.329205, 0.133978, -0.133978, 2.329205, 177.513859, -2166.685178)" fill="none" stroke-linejoin="round" d="M 79.641435 1058.3006 C 83.678189 1048.621444 83.61849 1045.834227 84.837075 1040.895587 " stroke="#000000" stroke-width="4.061" stroke-opacity="1" stroke-miterlimit="4"/></g></g></g><g clip-path="url(#884a6ffc7b)"><g clip-path="url(#b4f58a83f7)"><g clip-path="url(#080585404c)"><path stroke-linecap="round" transform="matrix(2.329205, 0.133978, -0.133978, 2.329205, 177.513859, -2166.685178)" fill="none" stroke-linejoin="round" d="M 70.259837 1058.999558 C 71.952742 1047.52491 71.684918 1041.848326 72.114797 1034.10235 " stroke="#000000" stroke-width="4.061" stroke-opacity="1" stroke-miterlimit="4"/></g></g></g><g clip-path="url(#e374485cf1)"><g clip-path="url(#8c944e8d1c)"><g clip-path="url(#8a3a9d81dd)"><path stroke-linecap="round" transform="matrix(2.329205, 0.133978, -0.133978, 2.329205, 177.513859, -2166.685178)" fill="none" stroke-linejoin="round" d="M 59.040525 1059.500673 C 59.138196 1051.51889 58.441493 1047.745298 57.991884 1042.669501 " stroke="#000000" stroke-width="4.061" stroke-opacity="1" stroke-miterlimit="4"/></g></g></g></svg>