<svg xmlns="http://www.w3.org/2000/svg" xmlns:xlink="http://www.w3.org/1999/xlink" width="500" zoomAndPan="magnify" viewBox="0 0 375 374.999991" height="500" preserveAspectRatio="xMidYMid meet" version="1.0"><defs><clipPath id="036ac6bda4"><path d="M 104 302 L 263 302 L 263 358 L 104 358 Z M 104 302 " clip-rule="nonzero"/></clipPath><clipPath id="e58aad5592"><path d="M 402.296875 44.605469 L 304.222656 418.199219 L -30.195312 330.410156 L 67.875 -43.183594 Z M 402.296875 44.605469 " clip-rule="nonzero"/></clipPath><clipPath id="6bd97f583d"><path d="M 758.378906 -625.761719 L 472.730469 462.371094 L -512.390625 203.769531 L -226.746094 -884.363281 Z M 758.378906 -625.761719 " clip-rule="nonzero"/></clipPath><clipPath id="f5b7e79471"><path d="M 98 295 L 269 295 L 269 364 L 98 364 Z M 98 295 " clip-rule="nonzero"/></clipPath><clipPath id="493d8d0313"><path d="M 402.296875 44.605469 L 304.222656 418.199219 L -30.195312 330.410156 L 67.875 -43.183594 Z M 402.296875 44.605469 " clip-rule="nonzero"/></clipPath><clipPath id="91e6f71076"><path d="M 758.378906 -625.761719 L 472.730469 462.371094 L -512.390625 203.769531 L -226.746094 -884.363281 Z M 758.378906 -625.761719 " clip-rule="nonzero"/></clipPath><clipPath id="8fb5ccd357"><path d="M 54 10 L 340 10 L 340 321 L 54 321 Z M 54 10 " clip-rule="nonzero"/></clipPath><clipPath id="20a3bfe403"><path d="M 402.296875 44.605469 L 304.222656 418.199219 L -30.195312 330.410156 L 67.875 -43.183594 Z M 402.296875 44.605469 " clip-rule="nonzero"/></clipPath><clipPath id="484edb610e"><path d="M 758.378906 -625.761719 L 472.730469 462.371094 L -512.390625 203.769531 L -226.746094 -884.363281 Z M 758.378906 -625.761719 " clip-rule="nonzero"/></clipPath><clipPath id="5701732a11"><path d="M 48 4 L 346 4 L 346 327 L 48 327 Z M 48 4 " clip-rule="nonzero"/></clipPath><clipPath id="6d2b31843d"><path d="M 402.296875 44.605469 L 304.222656 418.199219 L -30.195312 330.410156 L 67.875 -43.183594 Z M 402.296875 44.605469 " clip-rule="nonzero"/></clipPath><clipPath id="3279c30649"><path d="M 758.378906 -625.761719 L 472.730469 462.371094 L -512.390625 203.769531 L -226.746094 -884.363281 Z M 758.378906 -625.761719 " clip-rule="nonzero"/></clipPath><clipPath id="f03fa627b3"><path d="M 202 42 L 236 42 L 236 117 L 202 117 Z M 202 42 " clip-rule="nonzero"/></clipPath><clipPath id="4065774da0"><path d="M 402.296875 44.605469 L 304.222656 418.199219 L -30.195312 330.410156 L 67.875 -43.183594 Z M 402.296875 44.605469 " clip-rule="nonzero"/></clipPath><clipPath id="0a7e14bd26"><path d="M 758.378906 -625.761719 L 472.730469 462.371094 L -512.390625 203.769531 L -226.746094 -884.363281 Z M 758.378906 -625.761719 " clip-rule="nonzero"/></clipPath><clipPath id="e8eafffd48"><path d="M 116 34 L 138 34 L 138 108 L 116 108 Z M 116 34 " clip-rule="nonzero"/></clipPath><clipPath id="ae7cae5632"><path d="M 402.296875 44.605469 L 304.222656 418.199219 L -30.195312 330.410156 L 67.875 -43.183594 Z M 402.296875 44.605469 " clip-rule="nonzero"/></clipPath><clipPath id="a4d5eb851c"><path d="M 758.378906 -625.761719 L 472.730469 462.371094 L -512.390625 203.769531 L -226.746094 -884.363281 Z M 758.378906 -625.761719 " clip-rule="nonzero"/></clipPath><clipPath id="6358939acc"><path d="M 126 218 L 151 218 L 151 288 L 126 288 Z M 126 218 " clip-rule="nonzero"/></clipPath><clipPath id="bfa7960e9c"><path d="M 402.296875 44.605469 L 304.222656 418.199219 L -30.195312 330.410156 L 67.875 -43.183594 Z M 402.296875 44.605469 " clip-rule="nonzero"/></clipPath><clipPath id="3207fd226c"><path d="M 758.378906 -625.761719 L 472.730469 462.371094 L -512.390625 203.769531 L -226.746094 -884.363281 Z M 758.378906 -625.761719 " clip-rule="nonzero"/></clipPath><clipPath id="127aa9e5f9"><path d="M 166 201 L 182 201 L 182 294 L 166 294 Z M 166 201 " clip-rule="nonzero"/></clipPath><clipPath id="dcba8b633a"><path d="M 402.296875 44.605469 L 304.222656 418.199219 L -30.195312 330.410156 L 67.875 -43.183594 Z M 402.296875 44.605469 " clip-rule="nonzero"/></clipPath><clipPath id="7ef5be75d1"><path d="M 758.378906 -625.761719 L 472.730469 462.371094 L -512.390625 203.769531 L -226.746094 -884.363281 Z M 758.378906 -625.761719 " clip-rule="nonzero"/></clipPath><clipPath id="88a02beeaa"><path d="M 202 232 L 224 232 L 224 299 L 202 299 Z M 202 232 " clip-rule="nonzero"/></clipPath><clipPath id="c172bfde33"><path d="M 402.296875 44.605469 L 304.222656 418.199219 L -30.195312 330.410156 L 67.875 -43.183594 Z M 402.296875 44.605469 " clip-rule="nonzero"/></clipPath><clipPath id="996d94e0c9"><path d="M 758.378906 -625.761719 L 472.730469 462.371094 L -512.390625 203.769531 L -226.746094 -884.363281 Z M 758.378906 -625.761719 " clip-rule="nonzero"/></clipPath><clipPath id="32908312df"><path d="M 280 104 L 305 104 L 305 207 L 280 207 Z M 280 104 " clip-rule="nonzero"/></clipPath><clipPath id="981600fec4"><path d="M 402.296875 44.605469 L 304.222656 418.199219 L -30.195312 330.410156 L 67.875 -43.183594 Z M 402.296875 44.605469 " clip-rule="nonzero"/></clipPath><clipPath id="3a266437d8"><path d="M 758.378906 -625.761719 L 472.730469 462.371094 L -512.390625 203.769531 L -226.746094 -884.363281 Z M 758.378906 -625.761719 " clip-rule="nonzero"/></clipPath></defs><g clip-path="url(#036ac6bda4)"><g clip-path="url(#e58aad5592)"><g clip-path="url(#6bd97f583d)"><path fill="#dfe5f2" d="M 110.601562 302.410156 C 96.96875 320.488281 109.039062 334.082031 126.039062 344.972656 C 150.085938 360.375 213.328125 360.199219 236.035156 349.371094 C 256.886719 339.320312 267.3125 322.839844 259.457031 306.476562 " fill-opacity="1" fill-rule="nonzero"/></g></g></g><g clip-path="url(#f5b7e79471)"><g clip-path="url(#493d8d0313)"><g clip-path="url(#91e6f71076)"><path stroke-linecap="round" transform="matrix(-3.152135, -0.308491, -0.308491, 3.152135, 721.445933, -3029.850281)" fill="none" stroke-linejoin="round" d="M 89.47056 1065.900195 C 93.19851 1072.00024 88.987534 1075.900676 83.310606 1078.800089 C 75.280548 1082.900529 55.413012 1080.900378 48.610658 1076.799477 C 42.367452 1072.999907 39.598132 1067.50053 42.569826 1062.600188 " stroke="#000000" stroke-width="4.061" stroke-opacity="1" stroke-miterlimit="4"/></g></g></g><g clip-path="url(#8fb5ccd357)"><g clip-path="url(#20a3bfe403)"><g clip-path="url(#484edb610e)"><path fill="#dfe5f2" d="M 339.164062 181.890625 C 337.023438 231.644531 282.941406 304.636719 226.082031 317.53125 C 196.746094 323.886719 132.46875 320.460938 111.507812 301.542969 C 75.582031 269.386719 59.648438 230.59375 55.234375 184.335938 C 53.6875 167.957031 54.6875 149.59375 57.082031 134.554688 C 66.363281 73.042969 90.390625 28.957031 131.886719 40.265625 C 149.734375 -9.140625 226.773438 10.65625 223.359375 49.40625 C 267.675781 8.421875 321.648438 55.980469 292.523438 107.285156 C 300.6875 115.117188 341.371094 130.234375 339.164062 181.890625 Z M 339.164062 181.890625 " fill-opacity="1" fill-rule="nonzero"/></g></g></g><g clip-path="url(#5701732a11)"><g clip-path="url(#6d2b31843d)"><g clip-path="url(#3279c30649)"><path stroke-linecap="round" transform="matrix(-3.152135, -0.308491, -0.308491, 3.152135, 721.445933, -3029.850281)" fill="none" stroke-linejoin="round" d="M 21.35449 1020.999595 C 20.497047 1036.699872 35.246783 1061.299819 52.717468 1067.10036 C 61.740409 1069.999654 82.043989 1070.899901 89.212453 1065.599824 C 101.490525 1056.600029 107.690443 1044.899912 110.500085 1030.499811 C 111.489876 1025.400549 111.740374 1019.5994 111.45043 1014.799952 C 110.425628 995.185354 104.231177 980.593063 90.843852 982.870477 C 86.754896 966.796401 61.937663 970.648067 61.818787 982.929688 C 49.153408 968.68806 30.730691 981.972815 38.305006 998.990265 C 35.498706 1001.200295 22.24957 1004.699492 21.35449 1020.999595 Z M 21.35449 1020.999595 " stroke="#000000" stroke-width="4.061" stroke-opacity="1" stroke-miterlimit="4"/></g></g></g><g clip-path="url(#f03fa627b3)"><g clip-path="url(#4065774da0)"><g clip-path="url(#0a7e14bd26)"><path fill="#000000" d="M 216.621094 50.59375 C 200.40625 88.503906 203.773438 105.273438 202.316406 116.027344 C 211.898438 91.894531 213.6875 85.527344 225.773438 60.648438 C 227.835938 56.417969 230.414062 52.183594 235.683594 47.75 L 216.679688 43.023438 C 216.636719 42.0625 217.351562 47.75 216.621094 50.59375 Z M 216.621094 50.59375 " fill-opacity="1" fill-rule="nonzero"/></g></g></g><g clip-path="url(#e8eafffd48)"><g clip-path="url(#ae7cae5632)"><g clip-path="url(#a4d5eb851c)"><path fill="#000000" d="M 127.253906 34.878906 C 120.179688 58.019531 114.105469 87.277344 117.140625 107.300781 C 120.84375 94.519531 132.613281 62.105469 137.804688 42.746094 C 137.84375 42.757812 137.761719 42.777344 127.253906 34.878906 Z M 127.253906 34.878906 " fill-opacity="1" fill-rule="nonzero"/></g></g></g><g clip-path="url(#6358939acc)"><g clip-path="url(#bfa7960e9c)"><g clip-path="url(#3207fd226c)"><path stroke-linecap="round" transform="matrix(-3.152135, -0.308491, -0.308491, 3.152135, 721.445933, -3029.850281)" fill="none" stroke-linejoin="round" d="M 79.642446 1058.299737 C 83.677461 1048.59979 83.618163 1045.799501 84.837499 1040.899915 " stroke="#000000" stroke-width="4.061" stroke-opacity="1" stroke-miterlimit="4"/></g></g></g><g clip-path="url(#127aa9e5f9)"><g clip-path="url(#dcba8b633a)"><g clip-path="url(#7ef5be75d1)"><path stroke-linecap="round" transform="matrix(-3.152135, -0.308491, -0.308491, 3.152135, 721.445933, -3029.850281)" fill="none" stroke-linejoin="round" d="M 70.259796 1058.999928 C 71.952893 1047.499427 71.685347 1041.800005 72.11555 1034.09934 " stroke="#000000" stroke-width="4.061" stroke-opacity="1" stroke-miterlimit="4"/></g></g></g><g clip-path="url(#88a02beeaa)"><g clip-path="url(#c172bfde33)"><g clip-path="url(#996d94e0c9)"><path stroke-linecap="round" transform="matrix(-3.152135, -0.308491, -0.308491, 3.152135, 721.445933, -3029.850281)" fill="none" stroke-linejoin="round" d="M 59.041528 1059.500643 C 59.139254 1051.499764 58.442877 1047.700261 57.992848 1042.7005 " stroke="#000000" stroke-width="4.061" stroke-opacity="1" stroke-miterlimit="4"/></g></g></g><g clip-path="url(#32908312df)"><g clip-path="url(#981600fec4)"><g clip-path="url(#3a266437d8)"><path fill="#000000" d="M 300.007812 104.929688 C 282.566406 156.621094 296.582031 178.996094 304.632812 206.835938 C 291.128906 177.507812 270.007812 165.894531 286.457031 105.097656 Z M 300.007812 104.929688 " fill-opacity="1" fill-rule="nonzero"/></g></g></g></svg>