<svg xmlns="http://www.w3.org/2000/svg" xmlns:xlink="http://www.w3.org/1999/xlink" width="500" zoomAndPan="magnify" viewBox="0 0 375 374.999991" height="500" preserveAspectRatio="xMidYMid meet" version="1.0"><defs><clipPath id="9a1ac46ce0"><path d="M 120 314 L 238 314 L 238 362 L 120 362 Z M 120 314 " clip-rule="nonzero"/></clipPath><clipPath id="026edd7b36"><path d="M 121.746094 404.089844 L -3.433594 48.210938 L 251.265625 -41.378906 L 376.449219 314.496094 Z M 121.746094 404.089844 " clip-rule="nonzero"/></clipPath><clipPath id="0cf1380ad6"><path d="M 96.851562 426.492188 L -183.375 -370.15625 L 538.28125 -624.003906 L 818.507812 172.648438 Z M 96.851562 426.492188 " clip-rule="nonzero"/></clipPath><clipPath id="2a8f3d14da"><path d="M 115 309 L 243 309 L 243 367 L 115 367 Z M 115 309 " clip-rule="nonzero"/></clipPath><clipPath id="ed386432fe"><path d="M 121.746094 404.089844 L -3.433594 48.210938 L 251.265625 -41.378906 L 376.449219 314.496094 Z M 121.746094 404.089844 " clip-rule="nonzero"/></clipPath><clipPath id="0b005160cf"><path d="M 96.851562 426.492188 L -183.375 -370.15625 L 538.28125 -624.003906 L 818.507812 172.648438 Z M 96.851562 426.492188 " clip-rule="nonzero"/></clipPath><clipPath id="a9d8ac00ab"><path d="M 78 9 L 294 9 L 294 334 L 78 334 Z M 78 9 " clip-rule="nonzero"/></clipPath><clipPath id="0eb8020725"><path d="M 121.746094 404.089844 L -3.433594 48.210938 L 251.265625 -41.378906 L 376.449219 314.496094 Z M 121.746094 404.089844 " clip-rule="nonzero"/></clipPath><clipPath id="5fdb5fd4ae"><path d="M 96.851562 426.492188 L -183.375 -370.15625 L 538.28125 -624.003906 L 818.507812 172.648438 Z M 96.851562 426.492188 " clip-rule="nonzero"/></clipPath><clipPath id="864dc9eb44"><path d="M 73 4 L 299 4 L 299 339 L 73 339 Z M 73 4 " clip-rule="nonzero"/></clipPath><clipPath id="bca5f56249"><path d="M 121.746094 404.089844 L -3.433594 48.210938 L 251.265625 -41.378906 L 376.449219 314.496094 Z M 121.746094 404.089844 " clip-rule="nonzero"/></clipPath><clipPath id="faa72eac2f"><path d="M 96.851562 426.492188 L -183.375 -370.15625 L 538.28125 -624.003906 L 818.507812 172.648438 Z M 96.851562 426.492188 " clip-rule="nonzero"/></clipPath><clipPath id="6ce8d5fa7e"><path d="M 173 121 L 193 121 L 193 179 L 173 179 Z M 173 121 " clip-rule="nonzero"/></clipPath><clipPath id="13293498b8"><path d="M 121.746094 404.089844 L -3.433594 48.210938 L 251.265625 -41.378906 L 376.449219 314.496094 Z M 121.746094 404.089844 " clip-rule="nonzero"/></clipPath><clipPath id="7937fe27a6"><path d="M 96.851562 426.492188 L -183.375 -370.15625 L 538.28125 -624.003906 L 818.507812 172.648438 Z M 96.851562 426.492188 " clip-rule="nonzero"/></clipPath><clipPath id="b3c857b2ca"><path d="M 243 130 L 253 130 L 253 185 L 243 185 Z M 243 130 " clip-rule="nonzero"/></clipPath><clipPath id="cbe78709e2"><path d="M 121.746094 404.089844 L -3.433594 48.210938 L 251.265625 -41.378906 L 376.449219 314.496094 Z M 121.746094 404.089844 " clip-rule="nonzero"/></clipPath><clipPath id="5dd79f815e"><path d="M 96.851562 426.492188 L -183.375 -370.15625 L 538.28125 -624.003906 L 818.507812 172.648438 Z M 96.851562 426.492188 " clip-rule="nonzero"/></clipPath><clipPath id="929a44cd98"><path d="M 207 262 L 232 262 L 232 314 L 207 314 Z M 207 262 " clip-rule="nonzero"/></clipPath><clipPath id="c45da136c2"><path d="M 121.746094 404.089844 L -3.433594 48.210938 L 251.265625 -41.378906 L 376.449219 314.496094 Z M 121.746094 404.089844 " clip-rule="nonzero"/></clipPath><clipPath id="14a06ac2c1"><path d="M 96.851562 426.492188 L -183.375 -370.15625 L 538.28125 -624.003906 L 818.507812 172.648438 Z M 96.851562 426.492188 " clip-rule="nonzero"/></clipPath><clipPath id="5a0b5b6199"><path d="M 185 245 L 203 245 L 203 314 L 185 314 Z M 185 245 " clip-rule="nonzero"/></clipPath><clipPath id="a772a580d6"><path d="M 121.746094 404.089844 L -3.433594 48.210938 L 251.265625 -41.378906 L 376.449219 314.496094 Z M 121.746094 404.089844 " clip-rule="nonzero"/></clipPath><clipPath id="572ca1bc7d"><path d="M 96.851562 426.492188 L -183.375 -370.15625 L 538.28125 -624.003906 L 818.507812 172.648438 Z M 96.851562 426.492188 " clip-rule="nonzero"/></clipPath><clipPath id="5d9fb08789"><path d="M 158 263 L 169 263 L 169 314 L 158 314 Z M 158 263 " clip-rule="nonzero"/></clipPath><clipPath id="8b3ef1cc70"><path d="M 121.746094 404.089844 L -3.433594 48.210938 L 251.265625 -41.378906 L 376.449219 314.496094 Z M 121.746094 404.089844 " clip-rule="nonzero"/></clipPath><clipPath id="382efa43c8"><path d="M 96.851562 426.492188 L -183.375 -370.15625 L 538.28125 -624.003906 L 818.507812 172.648438 Z M 96.851562 426.492188 " clip-rule="nonzero"/></clipPath><clipPath id="9a0a7e5a4f"><path d="M 101 159 L 128 159 L 128 236 L 101 236 Z M 101 159 " clip-rule="nonzero"/></clipPath><clipPath id="8594dc20d4"><path d="M 121.746094 404.089844 L -3.433594 48.210938 L 251.265625 -41.378906 L 376.449219 314.496094 Z M 121.746094 404.089844 " clip-rule="nonzero"/></clipPath><clipPath id="f31f8e9362"><path d="M 96.851562 426.492188 L -183.375 -370.15625 L 538.28125 -624.003906 L 818.507812 172.648438 Z M 96.851562 426.492188 " clip-rule="nonzero"/></clipPath></defs><g clip-path="url(#9a1ac46ce0)"><g clip-path="url(#026edd7b36)"><g clip-path="url(#0cf1380ad6)"><path fill="#dfe5f2" d="M 234.851562 327.539062 C 242.972656 342.476562 232.503906 351.234375 218.675781 357.441406 C 199.113281 366.21875 152.160156 359.089844 136.496094 348.539062 C 122.121094 338.765625 116.203125 325.371094 123.847656 314.089844 " fill-opacity="1" fill-rule="nonzero"/></g></g></g><g clip-path="url(#2a8f3d14da)"><g clip-path="url(#ed386432fe)"><g clip-path="url(#0b005160cf)"><path stroke-linecap="round" transform="matrix(2.375177, 0.119699, -0.119699, 2.375177, 149.927747, -2214.870551)" fill="none" stroke-linejoin="round" d="M 89.471519 1065.899326 C 93.198146 1072.000523 88.987095 1075.899967 83.311276 1078.799296 C 75.281677 1082.899401 55.41262 1080.899297 48.611128 1076.79996 C 42.367436 1072.999792 39.598677 1067.499944 42.570278 1062.600543 " stroke="#000000" stroke-width="4.061" stroke-opacity="1" stroke-miterlimit="4"/></g></g></g><g clip-path="url(#a9d8ac00ab)"><g clip-path="url(#0eb8020725)"><g clip-path="url(#5fdb5fd4ae)"><path fill="#dfe5f2" d="M 78.433594 212.742188 C 74.519531 249.929688 106.609375 310.125 147.410156 325.992188 C 168.492188 333.960938 216.609375 338.527344 234.269531 326.796875 C 264.511719 306.890625 280.636719 279.84375 289.035156 245.976562 C 291.996094 233.980469 293.285156 220.234375 293.171875 208.800781 C 292.210938 166.929688 261.289062 140.789062 248.050781 130.492188 C 248.988281 103.277344 253.394531 70.636719 259.3125 40.050781 C 268.167969 -5.699219 203.234375 2.675781 195.378906 45.617188 C 191.699219 65.71875 186.261719 82.089844 179.101562 127.164062 C 172.863281 102.367188 162.074219 66.679688 159.082031 42.238281 C 154.148438 1.914062 95.625 22.992188 102.691406 72.164062 C 107.507812 105.648438 116.582031 130.582031 121.332031 162.492188 C 114.402344 167.40625 82.511719 174.132812 78.433594 212.742188 Z M 78.433594 212.742188 " fill-opacity="1" fill-rule="nonzero"/></g></g></g><g clip-path="url(#864dc9eb44)"><g clip-path="url(#bca5f56249)"><g clip-path="url(#faa72eac2f)"><path stroke-linecap="round" transform="matrix(2.375177, 0.119699, -0.119699, 2.375177, 149.927747, -2214.870551)" fill="none" stroke-linejoin="round" d="M 21.353518 1021.000267 C 20.496823 1036.700166 35.24707 1061.300318 52.717359 1067.100312 C 61.739505 1070.000647 82.043183 1070.899981 89.211384 1065.599959 C 101.490436 1056.600194 107.689786 1044.900465 110.499986 1030.50004 C 111.489561 1025.39956 111.739987 1019.599543 111.450435 1014.80035 C 110.160728 997.236728 96.621705 986.91328 90.844306 982.869234 C 90.66204 971.420394 91.821662 957.619559 93.659621 944.649606 C 96.410267 925.249266 69.318352 930.140636 66.928221 948.34033 C 65.808347 956.85995 63.87132 963.850146 61.818327 982.930809 C 58.673733 972.649273 53.387529 957.890482 51.61367 947.689527 C 48.688365 930.8596 24.557274 940.950041 28.565514 961.450444 C 31.296846 975.410428 35.635299 985.689359 38.305428 998.989648 C 35.499274 1001.199991 22.24902 1004.699772 21.353518 1021.000267 Z M 21.353518 1021.000267 " stroke="#000000" stroke-width="4.061" stroke-opacity="1" stroke-miterlimit="4"/></g></g></g><g clip-path="url(#6ce8d5fa7e)"><g clip-path="url(#13293498b8)"><g clip-path="url(#7937fe27a6)"><path fill="#000000" d="M 173.824219 125.96875 C 179.519531 156.402344 189.40625 170.710938 192.984375 178.035156 C 188.898438 158.96875 187.355469 154.246094 184.519531 133.675781 C 184.039062 130.171875 184.054688 126.03125 184.882812 121 Z M 173.824219 125.96875 " fill-opacity="1" fill-rule="nonzero"/></g></g></g><g clip-path="url(#b3c857b2ca)"><g clip-path="url(#cbe78709e2)"><g clip-path="url(#5dd79f815e)"><path fill="#000000" d="M 243.21875 130.488281 C 242.605469 148.648438 246.21875 170.667969 252.328125 184.597656 C 252.59375 164.910156 252.78125 149.371094 252.59375 130.613281 C 252.542969 130.609375 247.917969 130.734375 243.21875 130.5 Z M 243.21875 130.488281 " fill-opacity="1" fill-rule="nonzero"/></g></g></g><g clip-path="url(#929a44cd98)"><g clip-path="url(#c45da136c2)"><g clip-path="url(#14a06ac2c1)"><path stroke-linecap="round" transform="matrix(2.375177, 0.119699, -0.119699, 2.375177, 149.927747, -2214.870551)" fill="none" stroke-linejoin="round" d="M 79.641877 1058.299908 C 83.677403 1048.600533 83.618471 1045.799436 84.83689 1040.899578 " stroke="#000000" stroke-width="4.061" stroke-opacity="1" stroke-miterlimit="4"/></g></g></g><g clip-path="url(#5a0b5b6199)"><g clip-path="url(#a772a580d6)"><g clip-path="url(#572ca1bc7d)"><path stroke-linecap="round" transform="matrix(2.375177, 0.119699, -0.119699, 2.375177, 149.927747, -2214.870551)" fill="none" stroke-linejoin="round" d="M 70.260083 1058.999667 C 71.95344 1047.500708 71.684284 1041.800883 72.115234 1034.100462 " stroke="#000000" stroke-width="4.061" stroke-opacity="1" stroke-miterlimit="4"/></g></g></g><g clip-path="url(#5d9fb08789)"><g clip-path="url(#8b3ef1cc70)"><g clip-path="url(#382efa43c8)"><path stroke-linecap="round" transform="matrix(2.375177, 0.119699, -0.119699, 2.375177, 149.927747, -2214.870551)" fill="none" stroke-linejoin="round" d="M 59.041035 1059.499275 C 59.139505 1051.499843 58.443097 1047.6997 57.993764 1042.699693 " stroke="#000000" stroke-width="4.061" stroke-opacity="1" stroke-miterlimit="4"/></g></g></g><g clip-path="url(#9a0a7e5a4f)"><g clip-path="url(#8594dc20d4)"><g clip-path="url(#f31f8e9362)"><path fill="#000000" d="M 116.03125 159.917969 C 123.265625 200.238281 110.378906 215.304688 101.320312 235.085938 C 114.59375 214.800781 131.566406 208.515625 126.078125 161.542969 Z M 116.03125 159.917969 " fill-opacity="1" fill-rule="nonzero"/></g></g></g></svg>