<svg xmlns="http://www.w3.org/2000/svg" xmlns:xlink="http://www.w3.org/1999/xlink" width="300" zoomAndPan="magnify" viewBox="0 0 224.87999 225" height="300" preserveAspectRatio="xMidYMid meet" version="1.0"><defs><clipPath id="28bc22974e"><path d="M 93 81.652344 L 169.382812 81.652344 L 169.382812 188.613281 L 93 188.613281 Z M 93 81.652344 " clip-rule="nonzero"/></clipPath><clipPath id="2c835e5392"><path d="M 62.953125 4.511719 L 156 4.511719 L 156 208.394531 L 62.953125 208.394531 Z M 62.953125 4.511719 " clip-rule="nonzero"/></clipPath></defs><g clip-path="url(#28bc22974e)"><path fill="#000000" d="M 168.355469 112.519531 C 171.621094 96.695312 168.019531 81.691406 143.929688 81.691406 C 138.882812 81.691406 134.273438 82.394531 130.128906 83.71875 L 109.105469 131.097656 C 112.125 135.296875 117 139.046875 123.933594 143.0625 C 134.734375 149.273438 137.40625 153.46875 135.847656 160.601562 C 134.566406 166.457031 131.339844 171.085938 124.441406 171.085938 C 117.34375 171.085938 116.207031 165.257812 117.460938 156.796875 L 94.019531 156.796875 C 90.691406 174.292969 95.234375 188.570312 120.375 188.570312 C 143.578125 188.570312 156.539062 174.996094 160.273438 157.964844 C 164.066406 140.640625 157.714844 132.503906 140.664062 122.890625 C 130.644531 117.289062 129.007812 114.242188 130.300781 108.339844 C 131.554688 102.59375 134.667969 99.175781 139.953125 99.175781 C 146.695312 99.175781 146.664062 105.34375 145.488281 112.519531 L 168.355469 112.519531 " fill-opacity="1" fill-rule="nonzero"/></g><g clip-path="url(#2c835e5392)"><path fill="#000000" d="M 155.832031 4.511719 C 147.332031 21.09375 139.082031 37.804688 131.089844 54.636719 L 109.523438 54.636719 L 97.898438 85.410156 C 92.925781 98.46875 87.34375 112.316406 83.589844 124.597656 L 82.90625 124.597656 C 84.449219 112.699219 85.640625 98.320312 86.324219 85.113281 L 88.328125 55.003906 L 63.148438 55.003906 L 62.953125 148.105469 L 89.816406 148.105469 C 81.648438 168.0625 73.824219 188.164062 66.347656 208.394531 C 100.195312 142.300781 130.121094 74.199219 155.832031 4.511719 " fill-opacity="1" fill-rule="nonzero"/></g></svg>